<svg width="184" height="377" viewBox="0 0 184 377" fill="none" xmlns="http://www.w3.org/2000/svg">
<g clip-path="url(#clip0)">
<path d="M26.8378 104.493C29.38 104.508 30.2607 105.821 31.9759 106.015C36.9256 106.573 39.8195 106.445 45.0956 106.015C60.1629 104.785 75.5737 98.4189 88.288 95.9464C106.849 92.3364 112.061 97.5286 112.061 97.5286C112.061 97.5286 117.284 108.633 119.137 119.793C120.816 129.909 119.137 140.006 119.137 143.13C119.137 149.654 120.076 131.167 128.311 125.878C136.546 120.59 141.499 126.663 141.499 126.663C141.499 126.663 145.211 129.879 145.741 134.629C146.271 139.379 143.621 145.664 143.621 145.664C143.621 145.664 141.667 149.878 137.494 150.876C133.321 151.874 126.928 149.246 126.928 149.246C126.928 149.246 128.944 158.482 128.31 166.86C127.677 175.238 127.701 183.221 123.077 190.6C118.453 197.978 109.38 201.558 104.756 203.49C101.774 204.736 90.9762 207.288 82.5074 209.526C77.9475 210.73 76.234 211.904 71.815 212.579C59.3669 214.479 47.7423 211.344 42.6748 205.422C37.6072 199.5 29.5134 189.347 27.3912 183.868C25.2689 178.39 25.1711 169.08 26.8378 156.957C27.4922 152.734 28.7052 139.717 28.1049 129.484C27.3313 116.29 26.8378 104.493 26.8378 104.493Z" fill="#FFBEAA"/>
<path d="M9.48702 71.7777C10.0491 71.3468 16.0842 76.1806 23.0937 77.7928C30.1031 79.405 50.4571 68.6672 50.4571 68.6672C50.4571 68.6672 65.8136 62.1079 77.864 62.9998C84.1209 63.4629 98.9153 65.0429 106.627 68.6672C115.638 72.9011 118.046 79.8457 117.873 80.6599C117.554 82.1588 142.612 86.0379 138.752 109.142C134.892 132.247 136.24 123.627 136.24 123.627C136.24 123.627 130.622 122.587 126.251 127.993C121.88 133.399 118.754 145.251 118.754 145.251C118.754 145.251 120.568 133.165 118.754 121.079C116.941 108.992 111.501 96.9058 111.501 96.9058C111.501 96.9058 108.315 94.5775 97.2568 95.9502C86.1988 97.3228 72.8315 101.706 67.2692 102.396C60.4132 103.247 52.4551 106.154 43.52 106.702C37.6859 107.126 31.8323 106.204 26.411 104.008C19.9184 101.356 14.1187 97.9719 11.5484 91.9588C7.8874 83.3971 9.15317 72.0325 9.48702 71.7777Z" fill="#694314"/>
<path d="M77.4447 125.932C77.9508 126.307 77.9508 125.558 79.2065 128.687C79.5232 129.375 79.9819 129.987 80.5524 130.485C81.123 130.982 81.7925 131.353 82.5168 131.573C85.3436 131.421 90.2082 131.573 90.2082 131.573L95.4392 132.128C95.4392 132.128 97.93 133.409 96.318 135.301C95.7718 135.942 94.3224 134.953 92.4809 134.953C91.2964 134.963 90.1152 135.079 88.9515 135.301C88.9515 135.301 91.0692 143.92 84.697 143.302C78.3248 142.684 80.0863 135.301 80.0863 135.301C79.4731 135.169 78.9056 134.878 78.4415 134.456C77.9773 134.034 77.6331 133.497 77.4437 132.899C76.6358 130.279 77.1517 125.715 77.4447 125.932Z" fill="#694314"/>
<path d="M44.9003 126.032C44.4674 126.488 44.3372 125.751 43.6443 129.052C43.4521 129.784 43.1071 130.467 42.6318 131.056C42.1565 131.646 41.5618 132.128 40.8869 132.47C38.0761 132.813 33.3109 133.808 33.3109 133.808L28.2549 135.265C28.2549 135.265 26.0245 136.961 27.9414 138.543C28.5912 139.08 29.8466 137.854 31.6605 137.533C32.829 137.337 34.0127 137.246 35.1975 137.262C35.1975 137.262 34.6096 146.122 40.7788 144.403C46.948 142.685 43.9279 135.721 43.9279 135.721C44.5091 135.484 45.0173 135.099 45.4011 134.602C45.7848 134.106 46.0304 133.517 46.1129 132.896C46.4532 130.173 45.1509 125.768 44.9003 126.032Z" fill="#694314"/>
<path d="M59.6364 131.217C63.614 131.217 65.8 141.68 66.3123 148.415C67.0913 158.659 64.0456 172.945 64.0456 172.945C64.0456 172.945 62.7096 174.509 59.6358 174.577C57.7784 174.619 54.4523 173.331 52.6675 172.945C48.1601 171.971 46.0158 169.048 46.0158 169.048C46.0158 169.048 46.168 162.599 49.5731 153.141C52.9783 143.683 55.6588 131.217 59.6364 131.217Z" fill="#DB8F91"/>
<path d="M49.168 194.991C50.0554 193.602 51.5479 192.193 53.1895 191.726C55.9756 190.933 59.2981 191.83 59.2981 191.83C59.2981 191.83 69.5342 196.24 64.1468 198.66C58.7593 201.08 49.168 196.906 49.168 196.906L49.168 194.991Z" fill="#6C482E"/>
<path d="M94.1463 206.903C93.1341 207.015 103.513 204.706 109.759 201.769C116.005 198.832 119.373 194.911 119.13 195.154C118.886 195.397 123.053 199.854 123.053 199.854C121.408 201.602 119.735 202.791 117.903 204.342C115.121 206.662 110.396 209.263 110.396 209.263L103.629 211.885C103.629 211.885 100.367 210.285 98.8869 209.263C97.4068 208.29 95.8152 207.497 94.1463 206.903Z" fill="#DEA591"/>
<path d="M123.122 199.753L133.018 209.58C133.018 209.58 122.311 227.574 108.685 225.326C106.811 223.827 106.698 221.606 105.904 219.768C103.67 217.661 102.66 212.59 102.66 212.59L113.407 207.584L123.122 199.753Z" fill="#FFBEAA"/>
<path d="M19.7307 126.788L15.6939 137.267L14.9167 135.537L17.5118 125.346L21.4476 115.833C21.4476 115.833 24.706 103.047 20.8709 105.743C17.0357 108.438 17.5118 109.678 17.5118 109.678L13.7633 115.069C13.7633 115.069 9.10059 118.452 6.84302 125.346C4.93872 131.164 4.2985 137.353 3.77232 141.677C3.24614 146.001 3.39773 149.475 4.73828 150.052C6.07884 150.629 4.73828 156.293 4.73828 156.293L18.5787 162.246V153.8C20.2907 153.09 21.6638 151.748 22.4135 150.053C23.5886 147.264 23.2787 142.644 23.2787 142.644V135.538L24.1436 130.204C24.1436 130.204 25.6574 127.75 24.1436 126.788C22.6298 125.826 19.7307 126.788 19.7307 126.788Z" fill="#FDC384"/>
<path d="M6.12398 156.348L22.6928 163.078C22.6928 163.078 9.72632 193.354 39.0071 210.481C68.2879 227.607 103.069 212.524 103.069 212.524L108.017 223.505C108.017 223.505 116.882 231.619 131.876 209.263C137.931 208.832 149.063 211.193 149.063 211.193C149.063 211.193 166.311 220.154 173.165 235.76C183.041 258.246 184.86 308.896 184.86 308.896V334.867L165.8 332.881C165.8 332.881 168.166 316.321 167.543 301.831C167.094 292.737 165.674 283.716 163.307 274.923L159.933 298.777C159.933 298.777 144.279 306.029 127.002 307.154C109.726 308.278 90.8296 303.275 90.8296 303.275C90.8296 303.275 92.4878 286.909 94.0158 273.668C95.6834 259.218 83.5763 242.3 83.5763 242.3C73.9565 242.334 64.3632 241.291 54.9759 239.189C39.4468 235.613 22.3625 228.037 12.487 217.078C-6.87556 195.591 6.12398 156.348 6.12398 156.348Z" fill="#842E21"/>
<path d="M171.235 334.701C170.485 333.314 183.361 334.701 183.361 334.701C183.473 335.186 182.738 335.898 183.361 338.055C183.984 340.211 185.854 337.352 185.854 343.321C185.854 349.289 185.362 355.215 183.361 361.928C181.359 368.641 177.851 370.173 177.851 370.173C177.851 370.173 176.858 375.42 175.357 376.544C173.857 377.668 169.603 376.938 171.234 371.803C172.865 366.669 173.703 364.266 175.357 358.799C177.011 353.332 177.851 349.935 177.851 349.935L176.483 348.811L173.352 358.799C173.352 358.799 170.485 361.553 169.36 357.806C168.858 356.13 170.354 348.811 170.354 348.811L169.36 340.566C169.36 340.566 171.984 336.088 171.235 334.701Z" fill="#FEC283"/>
</g>
<path d="M42.3985 19.8284C42.3985 19.8284 47.4633 2.47549 63.7611 0.393201C80.0588 -1.68908 85.4049 5.17721 85.4049 5.17721L88.4347 9.8221L91.1619 17.7624C91.1619 17.7624 102.2 15.9744 108.91 19.8297C115.619 23.685 118 33.184 118 33.184C118 33.184 116.296 40.676 113.087 44.5994C109.878 48.5228 98.9535 49.3833 98.9535 49.3833L88.4347 45.9707C88.4347 45.9707 82.2013 53.6554 74.5828 54.8286C63.0558 56.6037 51.9289 44.5994 51.9289 44.5994C51.9289 44.5994 36.7229 52.5059 23.1999 45.9707C9.67691 39.4354 13.9797 28.4 17.8755 23.5964C19.6637 21.3916 25.4579 18.0308 31.2725 17.762C35.1195 17.5517 38.9595 18.2649 42.3985 19.8284Z" fill="#808185"/>
<defs>
<clipPath id="clip0">
<rect y="63" width="184" height="314" fill="white"/>
</clipPath>
</defs>
</svg>
