<svg width="373" height="329" viewBox="0 0 373 329" fill="none" xmlns="http://www.w3.org/2000/svg">
<path d="M251.685 150.283C251.685 152.648 249.521 154.566 246.85 154.566C244.18 154.566 242.015 152.648 242.015 150.283C242.015 147.918 244.18 146 246.85 146C249.521 146 251.685 147.918 251.685 150.283Z" fill="#7DAFC2"/>
<path d="M240 159.206C240 157.629 241.443 156.35 243.224 156.35H250.477C252.257 156.35 253.7 157.629 253.7 159.206V167.415C253.7 168.992 252.257 170.27 250.477 170.27H243.224C241.443 170.27 240 168.992 240 167.415V159.206Z" fill="#7DAFC2"/>
<path d="M243.224 170.27H250.477V179.193H243.224L243.224 170.27Z" fill="#7DAFC2"/>
<path d="M271.43 150.283C271.43 152.648 269.265 154.566 266.595 154.566C263.924 154.566 261.759 152.648 261.759 150.283C261.759 147.918 263.924 146 266.595 146C269.265 146 271.43 147.918 271.43 150.283Z" fill="#7DAFC2"/>
<path d="M259.744 159.206C259.744 157.629 261.188 156.35 262.968 156.35H270.221C272.001 156.35 273.445 157.629 273.445 159.206V167.415C273.445 168.992 272.001 170.27 270.221 170.27H262.968C261.188 170.27 259.744 168.992 259.744 167.415V159.206Z" fill="#7DAFC2"/>
<path d="M262.968 170.27H270.221V179.193H262.968V170.27Z" fill="#7DAFC2"/>
<path d="M291.174 150.283C291.174 152.648 289.009 154.566 286.339 154.566C283.668 154.566 281.504 152.648 281.504 150.283C281.504 147.918 283.668 146 286.339 146C289.009 146 291.174 147.918 291.174 150.283Z" fill="#7DAFC2"/>
<path d="M279.489 159.206C279.489 157.629 280.932 156.35 282.712 156.35H289.965C291.746 156.35 293.189 157.629 293.189 159.206V167.415C293.189 168.992 291.746 170.27 289.965 170.27H282.712C280.932 170.27 279.489 168.992 279.489 167.415V159.206Z" fill="#7DAFC2"/>
<path d="M282.712 170.27H289.965V179.193H282.712V170.27Z" fill="#7DAFC2"/>
<path d="M310.919 150.283C310.919 152.648 308.754 154.566 306.083 154.566C303.413 154.566 301.248 152.648 301.248 150.283C301.248 147.918 303.413 146 306.083 146C308.754 146 310.919 147.918 310.919 150.283Z" fill="#7DAFC2"/>
<path d="M299.233 159.206C299.233 157.629 300.676 156.35 302.457 156.35H309.71C311.49 156.35 312.933 157.629 312.933 159.206V167.415C312.933 168.992 311.49 170.27 309.71 170.27H302.457C300.676 170.27 299.233 168.992 299.233 167.415V159.206Z" fill="#7DAFC2"/>
<path d="M302.457 170.27H309.71V179.193H302.457V170.27Z" fill="#7DAFC2"/>
<path d="M330.663 150.283C330.663 152.648 328.498 154.566 325.828 154.566C323.157 154.566 320.992 152.648 320.992 150.283C320.992 147.918 323.157 146 325.828 146C328.498 146 330.663 147.918 330.663 150.283Z" fill="#7DAFC2"/>
<path d="M318.978 159.206C318.978 157.629 320.421 156.35 322.201 156.35H329.454C331.235 156.35 332.678 157.629 332.678 159.206V167.415C332.678 168.992 331.235 170.27 329.454 170.27H322.201C320.421 170.27 318.978 168.992 318.978 167.415V159.206Z" fill="#7DAFC2"/>
<path d="M322.201 170.27H329.454V179.193H322.201V170.27Z" fill="#7DAFC2"/>
<path d="M350.407 150.283C350.407 152.648 348.243 154.566 345.572 154.566C342.902 154.566 340.737 152.648 340.737 150.283C340.737 147.918 342.902 146 345.572 146C348.243 146 350.407 147.918 350.407 150.283Z" fill="#7DAFC2"/>
<path d="M338.722 159.206C338.722 157.629 340.165 156.35 341.946 156.35H349.199C350.979 156.35 352.422 157.629 352.422 159.206V167.415C352.422 168.992 350.979 170.27 349.199 170.27H341.946C340.165 170.27 338.722 168.992 338.722 167.415V159.206Z" fill="#7DAFC2"/>
<path d="M341.946 170.27H349.199V179.193H341.946V170.27Z" fill="#7DAFC2"/>
<path d="M251.685 113.283C251.685 115.648 249.521 117.566 246.85 117.566C244.18 117.566 242.015 115.648 242.015 113.283C242.015 110.918 244.18 109 246.85 109C249.521 109 251.685 110.918 251.685 113.283Z" fill="#7DAFC2"/>
<path d="M240 122.206C240 120.629 241.443 119.35 243.224 119.35H250.477C252.257 119.35 253.7 120.629 253.7 122.206V130.415C253.7 131.992 252.257 133.27 250.477 133.27H243.224C241.443 133.27 240 131.992 240 130.415V122.206Z" fill="#7DAFC2"/>
<path d="M243.224 133.27H250.477V142.193H243.224L243.224 133.27Z" fill="#7DAFC2"/>
<path d="M271.43 113.283C271.43 115.648 269.265 117.566 266.595 117.566C263.924 117.566 261.759 115.648 261.759 113.283C261.759 110.918 263.924 109 266.595 109C269.265 109 271.43 110.918 271.43 113.283Z" fill="#7DAFC2"/>
<path d="M259.744 122.206C259.744 120.629 261.188 119.35 262.968 119.35H270.221C272.001 119.35 273.445 120.629 273.445 122.206V130.415C273.445 131.992 272.001 133.27 270.221 133.27H262.968C261.188 133.27 259.744 131.992 259.744 130.415V122.206Z" fill="#7DAFC2"/>
<path d="M262.968 133.27H270.221V142.193H262.968V133.27Z" fill="#7DAFC2"/>
<path d="M291.174 113.283C291.174 115.648 289.009 117.566 286.339 117.566C283.668 117.566 281.504 115.648 281.504 113.283C281.504 110.918 283.668 109 286.339 109C289.009 109 291.174 110.918 291.174 113.283Z" fill="#7DAFC2"/>
<path d="M279.489 122.206C279.489 120.629 280.932 119.35 282.712 119.35H289.965C291.746 119.35 293.189 120.629 293.189 122.206V130.415C293.189 131.992 291.746 133.27 289.965 133.27H282.712C280.932 133.27 279.489 131.992 279.489 130.415V122.206Z" fill="#7DAFC2"/>
<path d="M282.712 133.27H289.965V142.193H282.712V133.27Z" fill="#7DAFC2"/>
<path d="M310.919 113.283C310.919 115.648 308.754 117.566 306.083 117.566C303.413 117.566 301.248 115.648 301.248 113.283C301.248 110.918 303.413 109 306.083 109C308.754 109 310.919 110.918 310.919 113.283Z" fill="#7DAFC2"/>
<path d="M299.233 122.206C299.233 120.629 300.676 119.35 302.457 119.35H309.71C311.49 119.35 312.933 120.629 312.933 122.206V130.415C312.933 131.992 311.49 133.27 309.71 133.27H302.457C300.676 133.27 299.233 131.992 299.233 130.415V122.206Z" fill="#7DAFC2"/>
<path d="M302.457 133.27H309.71V142.193H302.457V133.27Z" fill="#7DAFC2"/>
<path d="M330.663 113.283C330.663 115.648 328.498 117.566 325.828 117.566C323.157 117.566 320.992 115.648 320.992 113.283C320.992 110.918 323.157 109 325.828 109C328.498 109 330.663 110.918 330.663 113.283Z" fill="#7DAFC2"/>
<path d="M318.978 122.206C318.978 120.629 320.421 119.35 322.201 119.35H329.454C331.235 119.35 332.678 120.629 332.678 122.206V130.415C332.678 131.992 331.235 133.27 329.454 133.27H322.201C320.421 133.27 318.978 131.992 318.978 130.415V122.206Z" fill="#7DAFC2"/>
<path d="M322.201 133.27H329.454V142.193H322.201V133.27Z" fill="#7DAFC2"/>
<path d="M350.407 113.283C350.407 115.648 348.243 117.566 345.572 117.566C342.902 117.566 340.737 115.648 340.737 113.283C340.737 110.918 342.902 109 345.572 109C348.243 109 350.407 110.918 350.407 113.283Z" fill="#7DAFC2"/>
<path d="M338.722 122.206C338.722 120.629 340.165 119.35 341.946 119.35H349.199C350.979 119.35 352.422 120.629 352.422 122.206V130.415C352.422 131.992 350.979 133.27 349.199 133.27H341.946C340.165 133.27 338.722 131.992 338.722 130.415V122.206Z" fill="#7DAFC2"/>
<path d="M341.946 133.27H349.199V142.193H341.946V133.27Z" fill="#7DAFC2"/>
<path d="M309.685 298.283C309.685 300.648 307.521 302.566 304.85 302.566C302.18 302.566 300.015 300.648 300.015 298.283C300.015 295.918 302.18 294 304.85 294C307.521 294 309.685 295.918 309.685 298.283Z" fill="#7DAFC2"/>
<path d="M298 307.206C298 305.629 299.443 304.35 301.224 304.35H308.477C310.257 304.35 311.7 305.629 311.7 307.206V315.415C311.7 316.992 310.257 318.27 308.477 318.27H301.224C299.443 318.27 298 316.992 298 315.415V307.206Z" fill="#7DAFC2"/>
<path d="M301.224 318.27H308.477V327.193H301.224L301.224 318.27Z" fill="#7DAFC2"/>
<path d="M329.43 298.283C329.43 300.648 327.265 302.566 324.595 302.566C321.924 302.566 319.759 300.648 319.759 298.283C319.759 295.918 321.924 294 324.595 294C327.265 294 329.43 295.918 329.43 298.283Z" fill="#7DAFC2"/>
<path d="M317.744 307.206C317.744 305.629 319.188 304.35 320.968 304.35H328.221C330.001 304.35 331.445 305.629 331.445 307.206V315.415C331.445 316.992 330.001 318.27 328.221 318.27H320.968C319.188 318.27 317.744 316.992 317.744 315.415V307.206Z" fill="#7DAFC2"/>
<path d="M320.968 318.27H328.221V327.193H320.968V318.27Z" fill="#7DAFC2"/>
<path d="M349.174 298.283C349.174 300.648 347.009 302.566 344.339 302.566C341.668 302.566 339.504 300.648 339.504 298.283C339.504 295.918 341.668 294 344.339 294C347.009 294 349.174 295.918 349.174 298.283Z" fill="#7DAFC2"/>
<path d="M337.489 307.206C337.489 305.629 338.932 304.35 340.712 304.35H347.965C349.746 304.35 351.189 305.629 351.189 307.206V315.415C351.189 316.992 349.746 318.27 347.965 318.27H340.712C338.932 318.27 337.489 316.992 337.489 315.415V307.206Z" fill="#7DAFC2"/>
<path d="M340.712 318.27H347.965V327.193H340.712V318.27Z" fill="#7DAFC2"/>
<path d="M368.919 298.283C368.919 300.648 366.754 302.566 364.083 302.566C361.413 302.566 359.248 300.648 359.248 298.283C359.248 295.918 361.413 294 364.083 294C366.754 294 368.919 295.918 368.919 298.283Z" fill="#7DAFC2"/>
<path d="M357.233 307.206C357.233 305.629 358.676 304.35 360.457 304.35H367.71C369.49 304.35 370.933 305.629 370.933 307.206V315.415C370.933 316.992 369.49 318.27 367.71 318.27H360.457C358.676 318.27 357.233 316.992 357.233 315.415V307.206Z" fill="#7DAFC2"/>
<path d="M360.457 318.27H367.71V327.193H360.457V318.27Z" fill="#7DAFC2"/>
<path d="M290.685 299.283C290.685 301.648 288.521 303.566 285.85 303.566C283.18 303.566 281.015 301.648 281.015 299.283C281.015 296.918 283.18 295 285.85 295C288.521 295 290.685 296.918 290.685 299.283Z" fill="#7DAFC2"/>
<path d="M279 308.206C279 306.629 280.443 305.35 282.224 305.35H289.477C291.257 305.35 292.7 306.629 292.7 308.206V316.415C292.7 317.992 291.257 319.27 289.477 319.27H282.224C280.443 319.27 279 317.992 279 316.415V308.206Z" fill="#7DAFC2"/>
<path d="M282.224 319.27H289.477V328.193H282.224L282.224 319.27Z" fill="#7DAFC2"/>
<path d="M113.685 113.283C113.685 115.648 111.521 117.566 108.85 117.566C106.18 117.566 104.015 115.648 104.015 113.283C104.015 110.918 106.18 109 108.85 109C111.521 109 113.685 110.918 113.685 113.283Z" fill="#7DAFC2"/>
<path d="M102 122.206C102 120.629 103.443 119.35 105.224 119.35H112.477C114.257 119.35 115.7 120.629 115.7 122.206V130.415C115.7 131.992 114.257 133.27 112.477 133.27H105.224C103.443 133.27 102 131.992 102 130.415V122.206Z" fill="#7DAFC2"/>
<path d="M105.224 133.27H112.477V142.193H105.224L105.224 133.27Z" fill="#7DAFC2"/>
<path d="M14.6855 263.283C14.6855 265.648 12.5206 267.566 9.8501 267.566C7.1796 267.566 5.01473 265.648 5.01473 263.283C5.01473 260.918 7.1796 259 9.8501 259C12.5206 259 14.6855 260.918 14.6855 263.283Z" fill="#7DAFC2"/>
<path d="M3 272.206C3 270.629 4.44324 269.35 6.22358 269.35H13.4766C15.257 269.35 16.7002 270.629 16.7002 272.206V280.415C16.7002 281.992 15.257 283.27 13.4766 283.27H6.22358C4.44324 283.27 3 281.992 3 280.415V272.206Z" fill="#7DAFC2"/>
<path d="M6.22358 283.27H13.4766V292.193H6.22358L6.22358 283.27Z" fill="#7DAFC2"/>
<path d="M34.4299 263.283C34.4299 265.648 32.265 267.566 29.5945 267.566C26.924 267.566 24.7591 265.648 24.7591 263.283C24.7591 260.918 26.924 259 29.5945 259C32.265 259 34.4299 260.918 34.4299 263.283Z" fill="#7DAFC2"/>
<path d="M22.7444 272.206C22.7444 270.629 24.1876 269.35 25.968 269.35H33.221C35.0014 269.35 36.4446 270.629 36.4446 272.206V280.415C36.4446 281.992 35.0014 283.27 33.221 283.27H25.968C24.1876 283.27 22.7444 281.992 22.7444 280.415V272.206Z" fill="#7DAFC2"/>
<path d="M25.968 283.27H33.221V292.193H25.968V283.27Z" fill="#7DAFC2"/>
<path d="M54.1743 263.283C54.1743 265.648 52.0094 267.566 49.3389 267.566C46.6684 267.566 44.5035 265.648 44.5035 263.283C44.5035 260.918 46.6684 259 49.3389 259C52.0094 259 54.1743 260.918 54.1743 263.283Z" fill="#7DAFC2"/>
<path d="M42.4888 272.206C42.4888 270.629 43.9321 269.35 45.7124 269.35H52.9654C54.7458 269.35 56.189 270.629 56.189 272.206V280.415C56.189 281.992 54.7458 283.27 52.9654 283.27H45.7124C43.9321 283.27 42.4888 281.992 42.4888 280.415V272.206Z" fill="#7DAFC2"/>
<path d="M45.7124 283.27H52.9654V292.193H45.7124V283.27Z" fill="#7DAFC2"/>
<path d="M73.9187 263.283C73.9187 265.648 71.7538 267.566 69.0833 267.566C66.4128 267.566 64.2479 265.648 64.2479 263.283C64.2479 260.918 66.4128 259 69.0833 259C71.7538 259 73.9187 260.918 73.9187 263.283Z" fill="#7DAFC2"/>
<path d="M62.2332 272.206C62.2332 270.629 63.6765 269.35 65.4568 269.35H72.7098C74.4902 269.35 75.9334 270.629 75.9334 272.206V280.415C75.9334 281.992 74.4902 283.27 72.7098 283.27H65.4568C63.6765 283.27 62.2332 281.992 62.2332 280.415V272.206Z" fill="#7DAFC2"/>
<path d="M65.4568 283.27H72.7098V292.193H65.4568V283.27Z" fill="#7DAFC2"/>
<path d="M93.6631 263.283C93.6631 265.648 91.4982 267.566 88.8277 267.566C86.1572 267.566 83.9923 265.648 83.9923 263.283C83.9923 260.918 86.1572 259 88.8277 259C91.4982 259 93.6631 260.918 93.6631 263.283Z" fill="#7DAFC2"/>
<path d="M81.9776 272.206C81.9776 270.629 83.4209 269.35 85.2012 269.35H92.4542C94.2346 269.35 95.6778 270.629 95.6778 272.206V280.415C95.6778 281.992 94.2346 283.27 92.4542 283.27H85.2012C83.4209 283.27 81.9776 281.992 81.9776 280.415V272.206Z" fill="#7DAFC2"/>
<path d="M85.2012 283.27H92.4542V292.193H85.2012V283.27Z" fill="#7DAFC2"/>
<path d="M113.407 263.283C113.407 265.648 111.243 267.566 108.572 267.566C105.902 267.566 103.737 265.648 103.737 263.283C103.737 260.918 105.902 259 108.572 259C111.243 259 113.407 260.918 113.407 263.283Z" fill="#7DAFC2"/>
<path d="M101.722 272.206C101.722 270.629 103.165 269.35 104.946 269.35H112.199C113.979 269.35 115.422 270.629 115.422 272.206V280.415C115.422 281.992 113.979 283.27 112.199 283.27H104.946C103.165 283.27 101.722 281.992 101.722 280.415V272.206Z" fill="#7DAFC2"/>
<path d="M104.946 283.27H112.199V292.193H104.946V283.27Z" fill="#7DAFC2"/>
<path d="M251.685 262.283C251.685 264.648 249.521 266.566 246.85 266.566C244.18 266.566 242.015 264.648 242.015 262.283C242.015 259.918 244.18 258 246.85 258C249.521 258 251.685 259.918 251.685 262.283Z" fill="#7DAFC2"/>
<path d="M240 271.206C240 269.629 241.443 268.35 243.224 268.35H250.477C252.257 268.35 253.7 269.629 253.7 271.206V279.415C253.7 280.992 252.257 282.27 250.477 282.27H243.224C241.443 282.27 240 280.992 240 279.415V271.206Z" fill="#7DAFC2"/>
<path d="M243.224 282.27H250.477V291.193H243.224L243.224 282.27Z" fill="#7DAFC2"/>
<path d="M271.43 262.283C271.43 264.648 269.265 266.566 266.595 266.566C263.924 266.566 261.759 264.648 261.759 262.283C261.759 259.918 263.924 258 266.595 258C269.265 258 271.43 259.918 271.43 262.283Z" fill="#7DAFC2"/>
<path d="M259.744 271.206C259.744 269.629 261.188 268.35 262.968 268.35H270.221C272.001 268.35 273.445 269.629 273.445 271.206V279.415C273.445 280.992 272.001 282.27 270.221 282.27H262.968C261.188 282.27 259.744 280.992 259.744 279.415V271.206Z" fill="#7DAFC2"/>
<path d="M262.968 282.27H270.221V291.193H262.968V282.27Z" fill="#7DAFC2"/>
<path d="M291.174 262.283C291.174 264.648 289.009 266.566 286.339 266.566C283.668 266.566 281.504 264.648 281.504 262.283C281.504 259.918 283.668 258 286.339 258C289.009 258 291.174 259.918 291.174 262.283Z" fill="#7DAFC2"/>
<path d="M279.489 271.206C279.489 269.629 280.932 268.35 282.712 268.35H289.965C291.746 268.35 293.189 269.629 293.189 271.206V279.415C293.189 280.992 291.746 282.27 289.965 282.27H282.712C280.932 282.27 279.489 280.992 279.489 279.415V271.206Z" fill="#7DAFC2"/>
<path d="M282.712 282.27H289.965V291.193H282.712V282.27Z" fill="#7DAFC2"/>
<path d="M310.919 262.283C310.919 264.648 308.754 266.566 306.083 266.566C303.413 266.566 301.248 264.648 301.248 262.283C301.248 259.918 303.413 258 306.083 258C308.754 258 310.919 259.918 310.919 262.283Z" fill="#7DAFC2"/>
<path d="M299.233 271.206C299.233 269.629 300.676 268.35 302.457 268.35H309.71C311.49 268.35 312.933 269.629 312.933 271.206V279.415C312.933 280.992 311.49 282.27 309.71 282.27H302.457C300.676 282.27 299.233 280.992 299.233 279.415V271.206Z" fill="#7DAFC2"/>
<path d="M302.457 282.27H309.71V291.193H302.457V282.27Z" fill="#7DAFC2"/>
<path d="M330.663 262.283C330.663 264.648 328.498 266.566 325.828 266.566C323.157 266.566 320.992 264.648 320.992 262.283C320.992 259.918 323.157 258 325.828 258C328.498 258 330.663 259.918 330.663 262.283Z" fill="#7DAFC2"/>
<path d="M318.978 271.206C318.978 269.629 320.421 268.35 322.201 268.35H329.454C331.235 268.35 332.678 269.629 332.678 271.206V279.415C332.678 280.992 331.235 282.27 329.454 282.27H322.201C320.421 282.27 318.978 280.992 318.978 279.415V271.206Z" fill="#7DAFC2"/>
<path d="M322.201 282.27H329.454V291.193H322.201V282.27Z" fill="#7DAFC2"/>
<path d="M350.407 262.283C350.407 264.648 348.243 266.566 345.572 266.566C342.902 266.566 340.737 264.648 340.737 262.283C340.737 259.918 342.902 258 345.572 258C348.243 258 350.407 259.918 350.407 262.283Z" fill="#7DAFC2"/>
<path d="M338.722 271.206C338.722 269.629 340.165 268.35 341.946 268.35H349.199C350.979 268.35 352.422 269.629 352.422 271.206V279.415C352.422 280.992 350.979 282.27 349.199 282.27H341.946C340.165 282.27 338.722 280.992 338.722 279.415V271.206Z" fill="#7DAFC2"/>
<path d="M341.946 282.27H349.199V291.193H341.946V282.27Z" fill="#7DAFC2"/>
<path d="M133.685 186.283C133.685 188.648 131.521 190.566 128.85 190.566C126.18 190.566 124.015 188.648 124.015 186.283C124.015 183.918 126.18 182 128.85 182C131.521 182 133.685 183.918 133.685 186.283Z" fill="#7DAFC2"/>
<path d="M122 195.206C122 193.629 123.443 192.35 125.224 192.35H132.477C134.257 192.35 135.7 193.629 135.7 195.206V203.415C135.7 204.992 134.257 206.27 132.477 206.27H125.224C123.443 206.27 122 204.992 122 203.415V195.206Z" fill="#7DAFC2"/>
<path d="M125.224 206.27H132.477V215.193H125.224L125.224 206.27Z" fill="#7DAFC2"/>
<path d="M153.43 186.283C153.43 188.648 151.265 190.566 148.595 190.566C145.924 190.566 143.759 188.648 143.759 186.283C143.759 183.918 145.924 182 148.595 182C151.265 182 153.43 183.918 153.43 186.283Z" fill="#7DAFC2"/>
<path d="M141.744 195.206C141.744 193.629 143.188 192.35 144.968 192.35H152.221C154.001 192.35 155.445 193.629 155.445 195.206V203.415C155.445 204.992 154.001 206.27 152.221 206.27H144.968C143.188 206.27 141.744 204.992 141.744 203.415V195.206Z" fill="#7DAFC2"/>
<path d="M144.968 206.27H152.221V215.193H144.968V206.27Z" fill="#7DAFC2"/>
<path d="M173.174 186.283C173.174 188.648 171.009 190.566 168.339 190.566C165.668 190.566 163.504 188.648 163.504 186.283C163.504 183.918 165.668 182 168.339 182C171.009 182 173.174 183.918 173.174 186.283Z" fill="#7DAFC2"/>
<path d="M161.489 195.206C161.489 193.629 162.932 192.35 164.712 192.35H171.965C173.746 192.35 175.189 193.629 175.189 195.206V203.415C175.189 204.992 173.746 206.27 171.965 206.27H164.712C162.932 206.27 161.489 204.992 161.489 203.415V195.206Z" fill="#7DAFC2"/>
<path d="M164.712 206.27H171.965V215.193H164.712V206.27Z" fill="#7DAFC2"/>
<path d="M192.919 186.283C192.919 188.648 190.754 190.566 188.083 190.566C185.413 190.566 183.248 188.648 183.248 186.283C183.248 183.918 185.413 182 188.083 182C190.754 182 192.919 183.918 192.919 186.283Z" fill="#7DAFC2"/>
<path d="M181.233 195.206C181.233 193.629 182.676 192.35 184.457 192.35H191.71C193.49 192.35 194.933 193.629 194.933 195.206V203.415C194.933 204.992 193.49 206.27 191.71 206.27H184.457C182.676 206.27 181.233 204.992 181.233 203.415V195.206Z" fill="#7DAFC2"/>
<path d="M184.457 206.27H191.71V215.193H184.457V206.27Z" fill="#7DAFC2"/>
<path d="M212.663 186.283C212.663 188.648 210.498 190.566 207.828 190.566C205.157 190.566 202.992 188.648 202.992 186.283C202.992 183.918 205.157 182 207.828 182C210.498 182 212.663 183.918 212.663 186.283Z" fill="#7DAFC2"/>
<path d="M200.978 195.206C200.978 193.629 202.421 192.35 204.201 192.35H211.454C213.235 192.35 214.678 193.629 214.678 195.206V203.415C214.678 204.992 213.235 206.27 211.454 206.27H204.201C202.421 206.27 200.978 204.992 200.978 203.415V195.206Z" fill="#7DAFC2"/>
<path d="M204.201 206.27H211.454V215.193H204.201V206.27Z" fill="#7DAFC2"/>
<path d="M232.407 186.283C232.407 188.648 230.243 190.566 227.572 190.566C224.902 190.566 222.737 188.648 222.737 186.283C222.737 183.918 224.902 182 227.572 182C230.243 182 232.407 183.918 232.407 186.283Z" fill="#7DAFC2"/>
<path d="M220.722 195.206C220.722 193.629 222.165 192.35 223.946 192.35H231.199C232.979 192.35 234.422 193.629 234.422 195.206V203.415C234.422 204.992 232.979 206.27 231.199 206.27H223.946C222.165 206.27 220.722 204.992 220.722 203.415V195.206Z" fill="#7DAFC2"/>
<path d="M223.946 206.27H231.199V215.193H223.946V206.27Z" fill="#7DAFC2"/>
<path d="M133.685 150.283C133.685 152.648 131.521 154.566 128.85 154.566C126.18 154.566 124.015 152.648 124.015 150.283C124.015 147.918 126.18 146 128.85 146C131.521 146 133.685 147.918 133.685 150.283Z" fill="#7DAFC2"/>
<path d="M122 159.206C122 157.629 123.443 156.35 125.224 156.35H132.477C134.257 156.35 135.7 157.629 135.7 159.206V167.415C135.7 168.992 134.257 170.27 132.477 170.27H125.224C123.443 170.27 122 168.992 122 167.415V159.206Z" fill="#7DAFC2"/>
<path d="M125.224 170.27H132.477V179.193H125.224L125.224 170.27Z" fill="#7DAFC2"/>
<path d="M153.43 150.283C153.43 152.648 151.265 154.566 148.595 154.566C145.924 154.566 143.759 152.648 143.759 150.283C143.759 147.918 145.924 146 148.595 146C151.265 146 153.43 147.918 153.43 150.283Z" fill="#7DAFC2"/>
<path d="M141.744 159.206C141.744 157.629 143.188 156.35 144.968 156.35H152.221C154.001 156.35 155.445 157.629 155.445 159.206V167.415C155.445 168.992 154.001 170.27 152.221 170.27H144.968C143.188 170.27 141.744 168.992 141.744 167.415V159.206Z" fill="#7DAFC2"/>
<path d="M144.968 170.27H152.221V179.193H144.968V170.27Z" fill="#7DAFC2"/>
<path d="M173.174 150.283C173.174 152.648 171.009 154.566 168.339 154.566C165.668 154.566 163.504 152.648 163.504 150.283C163.504 147.918 165.668 146 168.339 146C171.009 146 173.174 147.918 173.174 150.283Z" fill="#7DAFC2"/>
<path d="M161.489 159.206C161.489 157.629 162.932 156.35 164.712 156.35H171.965C173.746 156.35 175.189 157.629 175.189 159.206V167.415C175.189 168.992 173.746 170.27 171.965 170.27H164.712C162.932 170.27 161.489 168.992 161.489 167.415V159.206Z" fill="#7DAFC2"/>
<path d="M164.712 170.27H171.965V179.193H164.712V170.27Z" fill="#7DAFC2"/>
<path d="M192.919 150.283C192.919 152.648 190.754 154.566 188.083 154.566C185.413 154.566 183.248 152.648 183.248 150.283C183.248 147.918 185.413 146 188.083 146C190.754 146 192.919 147.918 192.919 150.283Z" fill="#7DAFC2"/>
<path d="M181.233 159.206C181.233 157.629 182.676 156.35 184.457 156.35H191.71C193.49 156.35 194.933 157.629 194.933 159.206V167.415C194.933 168.992 193.49 170.27 191.71 170.27H184.457C182.676 170.27 181.233 168.992 181.233 167.415V159.206Z" fill="#7DAFC2"/>
<path d="M184.457 170.27H191.71V179.193H184.457V170.27Z" fill="#7DAFC2"/>
<path d="M212.663 150.283C212.663 152.648 210.498 154.566 207.828 154.566C205.157 154.566 202.992 152.648 202.992 150.283C202.992 147.918 205.157 146 207.828 146C210.498 146 212.663 147.918 212.663 150.283Z" fill="#7DAFC2"/>
<path d="M200.978 159.206C200.978 157.629 202.421 156.35 204.201 156.35H211.454C213.235 156.35 214.678 157.629 214.678 159.206V167.415C214.678 168.992 213.235 170.27 211.454 170.27H204.201C202.421 170.27 200.978 168.992 200.978 167.415V159.206Z" fill="#7DAFC2"/>
<path d="M204.201 170.27H211.454V179.193H204.201V170.27Z" fill="#7DAFC2"/>
<path d="M232.407 150.283C232.407 152.648 230.243 154.566 227.572 154.566C224.902 154.566 222.737 152.648 222.737 150.283C222.737 147.918 224.902 146 227.572 146C230.243 146 232.407 147.918 232.407 150.283Z" fill="#7DAFC2"/>
<path d="M220.722 159.206C220.722 157.629 222.165 156.35 223.946 156.35H231.199C232.979 156.35 234.422 157.629 234.422 159.206V167.415C234.422 168.992 232.979 170.27 231.199 170.27H223.946C222.165 170.27 220.722 168.992 220.722 167.415V159.206Z" fill="#7DAFC2"/>
<path d="M223.946 170.27H231.199V179.193H223.946V170.27Z" fill="#7DAFC2"/>
<path d="M133.685 113.283C133.685 115.648 131.521 117.566 128.85 117.566C126.18 117.566 124.015 115.648 124.015 113.283C124.015 110.918 126.18 109 128.85 109C131.521 109 133.685 110.918 133.685 113.283Z" fill="#7DAFC2"/>
<path d="M122 122.206C122 120.629 123.443 119.35 125.224 119.35H132.477C134.257 119.35 135.7 120.629 135.7 122.206V130.415C135.7 131.992 134.257 133.27 132.477 133.27H125.224C123.443 133.27 122 131.992 122 130.415V122.206Z" fill="#7DAFC2"/>
<path d="M125.224 133.27H132.477V142.193H125.224L125.224 133.27Z" fill="#7DAFC2"/>
<path d="M153.43 113.283C153.43 115.648 151.265 117.566 148.595 117.566C145.924 117.566 143.759 115.648 143.759 113.283C143.759 110.918 145.924 109 148.595 109C151.265 109 153.43 110.918 153.43 113.283Z" fill="#7DAFC2"/>
<path d="M141.744 122.206C141.744 120.629 143.188 119.35 144.968 119.35H152.221C154.001 119.35 155.445 120.629 155.445 122.206V130.415C155.445 131.992 154.001 133.27 152.221 133.27H144.968C143.188 133.27 141.744 131.992 141.744 130.415V122.206Z" fill="#7DAFC2"/>
<path d="M144.968 133.27H152.221V142.193H144.968V133.27Z" fill="#7DAFC2"/>
<path d="M173.174 113.283C173.174 115.648 171.009 117.566 168.339 117.566C165.668 117.566 163.504 115.648 163.504 113.283C163.504 110.918 165.668 109 168.339 109C171.009 109 173.174 110.918 173.174 113.283Z" fill="#7DAFC2"/>
<path d="M161.489 122.206C161.489 120.629 162.932 119.35 164.712 119.35H171.965C173.746 119.35 175.189 120.629 175.189 122.206V130.415C175.189 131.992 173.746 133.27 171.965 133.27H164.712C162.932 133.27 161.489 131.992 161.489 130.415V122.206Z" fill="#7DAFC2"/>
<path d="M164.712 133.27H171.965V142.193H164.712V133.27Z" fill="#7DAFC2"/>
<path d="M192.919 113.283C192.919 115.648 190.754 117.566 188.083 117.566C185.413 117.566 183.248 115.648 183.248 113.283C183.248 110.918 185.413 109 188.083 109C190.754 109 192.919 110.918 192.919 113.283Z" fill="#7DAFC2"/>
<path d="M181.233 122.206C181.233 120.629 182.676 119.35 184.457 119.35H191.71C193.49 119.35 194.933 120.629 194.933 122.206V130.415C194.933 131.992 193.49 133.27 191.71 133.27H184.457C182.676 133.27 181.233 131.992 181.233 130.415V122.206Z" fill="#7DAFC2"/>
<path d="M184.457 133.27H191.71V142.193H184.457V133.27Z" fill="#7DAFC2"/>
<path d="M212.663 113.283C212.663 115.648 210.498 117.566 207.828 117.566C205.157 117.566 202.992 115.648 202.992 113.283C202.992 110.918 205.157 109 207.828 109C210.498 109 212.663 110.918 212.663 113.283Z" fill="#7DAFC2"/>
<path d="M200.978 122.206C200.978 120.629 202.421 119.35 204.201 119.35H211.454C213.235 119.35 214.678 120.629 214.678 122.206V130.415C214.678 131.992 213.235 133.27 211.454 133.27H204.201C202.421 133.27 200.978 131.992 200.978 130.415V122.206Z" fill="#7DAFC2"/>
<path d="M204.201 133.27H211.454V142.193H204.201V133.27Z" fill="#7DAFC2"/>
<path d="M232.407 113.283C232.407 115.648 230.243 117.566 227.572 117.566C224.902 117.566 222.737 115.648 222.737 113.283C222.737 110.918 224.902 109 227.572 109C230.243 109 232.407 110.918 232.407 113.283Z" fill="#7DAFC2"/>
<path d="M220.722 122.206C220.722 120.629 222.165 119.35 223.946 119.35H231.199C232.979 119.35 234.422 120.629 234.422 122.206V130.415C234.422 131.992 232.979 133.27 231.199 133.27H223.946C222.165 133.27 220.722 131.992 220.722 130.415V122.206Z" fill="#7DAFC2"/>
<path d="M223.946 133.27H231.199V142.193H223.946V133.27Z" fill="#7DAFC2"/>
<path d="M14.6855 150.283C14.6855 152.648 12.5206 154.566 9.8501 154.566C7.1796 154.566 5.01473 152.648 5.01473 150.283C5.01473 147.918 7.1796 146 9.8501 146C12.5206 146 14.6855 147.918 14.6855 150.283Z" fill="#7DAFC2"/>
<path d="M3 159.206C3 157.629 4.44324 156.35 6.22358 156.35H13.4766C15.257 156.35 16.7002 157.629 16.7002 159.206V167.415C16.7002 168.992 15.257 170.27 13.4766 170.27H6.22358C4.44324 170.27 3 168.992 3 167.415V159.206Z" fill="#7DAFC2"/>
<path d="M6.22358 170.27H13.4766V179.193H6.22358L6.22358 170.27Z" fill="#7DAFC2"/>
<path d="M34.4299 150.283C34.4299 152.648 32.265 154.566 29.5945 154.566C26.924 154.566 24.7591 152.648 24.7591 150.283C24.7591 147.918 26.924 146 29.5945 146C32.265 146 34.4299 147.918 34.4299 150.283Z" fill="#7DAFC2"/>
<path d="M22.7444 159.206C22.7444 157.629 24.1876 156.35 25.968 156.35H33.221C35.0014 156.35 36.4446 157.629 36.4446 159.206V167.415C36.4446 168.992 35.0014 170.27 33.221 170.27H25.968C24.1876 170.27 22.7444 168.992 22.7444 167.415V159.206Z" fill="#7DAFC2"/>
<path d="M25.968 170.27H33.221V179.193H25.968V170.27Z" fill="#7DAFC2"/>
<path d="M54.1743 150.283C54.1743 152.648 52.0094 154.566 49.3389 154.566C46.6684 154.566 44.5035 152.648 44.5035 150.283C44.5035 147.918 46.6684 146 49.3389 146C52.0094 146 54.1743 147.918 54.1743 150.283Z" fill="#7DAFC2"/>
<path d="M42.4888 159.206C42.4888 157.629 43.9321 156.35 45.7124 156.35H52.9654C54.7458 156.35 56.189 157.629 56.189 159.206V167.415C56.189 168.992 54.7458 170.27 52.9654 170.27H45.7124C43.9321 170.27 42.4888 168.992 42.4888 167.415V159.206Z" fill="#7DAFC2"/>
<path d="M45.7124 170.27H52.9654V179.193H45.7124V170.27Z" fill="#7DAFC2"/>
<path d="M73.9187 150.283C73.9187 152.648 71.7538 154.566 69.0833 154.566C66.4128 154.566 64.2479 152.648 64.2479 150.283C64.2479 147.918 66.4128 146 69.0833 146C71.7538 146 73.9187 147.918 73.9187 150.283Z" fill="#7DAFC2"/>
<path d="M62.2332 159.206C62.2332 157.629 63.6765 156.35 65.4568 156.35H72.7098C74.4902 156.35 75.9334 157.629 75.9334 159.206V167.415C75.9334 168.992 74.4902 170.27 72.7098 170.27H65.4568C63.6765 170.27 62.2332 168.992 62.2332 167.415V159.206Z" fill="#7DAFC2"/>
<path d="M65.4568 170.27H72.7098V179.193H65.4568V170.27Z" fill="#7DAFC2"/>
<path d="M93.6631 150.283C93.6631 152.648 91.4982 154.566 88.8277 154.566C86.1572 154.566 83.9923 152.648 83.9923 150.283C83.9923 147.918 86.1572 146 88.8277 146C91.4982 146 93.6631 147.918 93.6631 150.283Z" fill="#7DAFC2"/>
<path d="M81.9776 159.206C81.9776 157.629 83.4209 156.35 85.2012 156.35H92.4542C94.2346 156.35 95.6778 157.629 95.6778 159.206V167.415C95.6778 168.992 94.2346 170.27 92.4542 170.27H85.2012C83.4209 170.27 81.9776 168.992 81.9776 167.415V159.206Z" fill="#7DAFC2"/>
<path d="M85.2012 170.27H92.4542V179.193H85.2012V170.27Z" fill="#7DAFC2"/>
<path d="M113.407 150.283C113.407 152.648 111.243 154.566 108.572 154.566C105.902 154.566 103.737 152.648 103.737 150.283C103.737 147.918 105.902 146 108.572 146C111.243 146 113.407 147.918 113.407 150.283Z" fill="#7DAFC2"/>
<path d="M101.722 159.206C101.722 157.629 103.165 156.35 104.946 156.35H112.199C113.979 156.35 115.422 157.629 115.422 159.206V167.415C115.422 168.992 113.979 170.27 112.199 170.27H104.946C103.165 170.27 101.722 168.992 101.722 167.415V159.206Z" fill="#7DAFC2"/>
<path d="M104.946 170.27H112.199V179.193H104.946V170.27Z" fill="#7DAFC2"/>
<path d="M133.685 225.283C133.685 227.648 131.521 229.566 128.85 229.566C126.18 229.566 124.015 227.648 124.015 225.283C124.015 222.918 126.18 221 128.85 221C131.521 221 133.685 222.918 133.685 225.283Z" fill="#7DAFC2"/>
<path d="M122 234.206C122 232.629 123.443 231.35 125.224 231.35H132.477C134.257 231.35 135.7 232.629 135.7 234.206V242.415C135.7 243.992 134.257 245.27 132.477 245.27H125.224C123.443 245.27 122 243.992 122 242.415V234.206Z" fill="#7DAFC2"/>
<path d="M125.224 245.27H132.477V254.193H125.224L125.224 245.27Z" fill="#7DAFC2"/>
<path d="M153.43 225.283C153.43 227.648 151.265 229.566 148.595 229.566C145.924 229.566 143.759 227.648 143.759 225.283C143.759 222.918 145.924 221 148.595 221C151.265 221 153.43 222.918 153.43 225.283Z" fill="#7DAFC2"/>
<path d="M141.744 234.206C141.744 232.629 143.188 231.35 144.968 231.35H152.221C154.001 231.35 155.445 232.629 155.445 234.206V242.415C155.445 243.992 154.001 245.27 152.221 245.27H144.968C143.188 245.27 141.744 243.992 141.744 242.415V234.206Z" fill="#7DAFC2"/>
<path d="M144.968 245.27H152.221V254.193H144.968V245.27Z" fill="#7DAFC2"/>
<path d="M173.174 225.283C173.174 227.648 171.009 229.566 168.339 229.566C165.668 229.566 163.504 227.648 163.504 225.283C163.504 222.918 165.668 221 168.339 221C171.009 221 173.174 222.918 173.174 225.283Z" fill="#7DAFC2"/>
<path d="M161.489 234.206C161.489 232.629 162.932 231.35 164.712 231.35H171.965C173.746 231.35 175.189 232.629 175.189 234.206V242.415C175.189 243.992 173.746 245.27 171.965 245.27H164.712C162.932 245.27 161.489 243.992 161.489 242.415V234.206Z" fill="#7DAFC2"/>
<path d="M164.712 245.27H171.965V254.193H164.712V245.27Z" fill="#7DAFC2"/>
<path d="M192.919 225.283C192.919 227.648 190.754 229.566 188.083 229.566C185.413 229.566 183.248 227.648 183.248 225.283C183.248 222.918 185.413 221 188.083 221C190.754 221 192.919 222.918 192.919 225.283Z" fill="#7DAFC2"/>
<path d="M181.233 234.206C181.233 232.629 182.676 231.35 184.457 231.35H191.71C193.49 231.35 194.933 232.629 194.933 234.206V242.415C194.933 243.992 193.49 245.27 191.71 245.27H184.457C182.676 245.27 181.233 243.992 181.233 242.415V234.206Z" fill="#7DAFC2"/>
<path d="M184.457 245.27H191.71V254.193H184.457V245.27Z" fill="#7DAFC2"/>
<path d="M212.663 225.283C212.663 227.648 210.498 229.566 207.828 229.566C205.157 229.566 202.992 227.648 202.992 225.283C202.992 222.918 205.157 221 207.828 221C210.498 221 212.663 222.918 212.663 225.283Z" fill="#7DAFC2"/>
<path d="M200.978 234.206C200.978 232.629 202.421 231.35 204.201 231.35H211.454C213.235 231.35 214.678 232.629 214.678 234.206V242.415C214.678 243.992 213.235 245.27 211.454 245.27H204.201C202.421 245.27 200.978 243.992 200.978 242.415V234.206Z" fill="#7DAFC2"/>
<path d="M204.201 245.27H211.454V254.193H204.201V245.27Z" fill="#7DAFC2"/>
<path d="M232.407 225.283C232.407 227.648 230.243 229.566 227.572 229.566C224.902 229.566 222.737 227.648 222.737 225.283C222.737 222.918 224.902 221 227.572 221C230.243 221 232.407 222.918 232.407 225.283Z" fill="#7DAFC2"/>
<path d="M220.722 234.206C220.722 232.629 222.165 231.35 223.946 231.35H231.199C232.979 231.35 234.422 232.629 234.422 234.206V242.415C234.422 243.992 232.979 245.27 231.199 245.27H223.946C222.165 245.27 220.722 243.992 220.722 242.415V234.206Z" fill="#7DAFC2"/>
<path d="M223.946 245.27H231.199V254.193H223.946V245.27Z" fill="#7DAFC2"/>
<path d="M14.6855 186.283C14.6855 188.648 12.5206 190.566 9.8501 190.566C7.1796 190.566 5.01473 188.648 5.01473 186.283C5.01473 183.918 7.1796 182 9.8501 182C12.5206 182 14.6855 183.918 14.6855 186.283Z" fill="#7DAFC2"/>
<path d="M3 195.206C3 193.629 4.44324 192.35 6.22358 192.35H13.4766C15.257 192.35 16.7002 193.629 16.7002 195.206V203.415C16.7002 204.992 15.257 206.27 13.4766 206.27H6.22358C4.44324 206.27 3 204.992 3 203.415V195.206Z" fill="#7DAFC2"/>
<path d="M6.22358 206.27H13.4766V215.193H6.22358L6.22358 206.27Z" fill="#7DAFC2"/>
<path d="M34.4299 186.283C34.4299 188.648 32.265 190.566 29.5945 190.566C26.924 190.566 24.7591 188.648 24.7591 186.283C24.7591 183.918 26.924 182 29.5945 182C32.265 182 34.4299 183.918 34.4299 186.283Z" fill="#7DAFC2"/>
<path d="M22.7444 195.206C22.7444 193.629 24.1876 192.35 25.968 192.35H33.221C35.0014 192.35 36.4446 193.629 36.4446 195.206V203.415C36.4446 204.992 35.0014 206.27 33.221 206.27H25.968C24.1876 206.27 22.7444 204.992 22.7444 203.415V195.206Z" fill="#7DAFC2"/>
<path d="M25.968 206.27H33.221V215.193H25.968V206.27Z" fill="#7DAFC2"/>
<path d="M54.1743 186.283C54.1743 188.648 52.0094 190.566 49.3389 190.566C46.6684 190.566 44.5035 188.648 44.5035 186.283C44.5035 183.918 46.6684 182 49.3389 182C52.0094 182 54.1743 183.918 54.1743 186.283Z" fill="#7DAFC2"/>
<path d="M42.4888 195.206C42.4888 193.629 43.9321 192.35 45.7124 192.35H52.9654C54.7458 192.35 56.189 193.629 56.189 195.206V203.415C56.189 204.992 54.7458 206.27 52.9654 206.27H45.7124C43.9321 206.27 42.4888 204.992 42.4888 203.415V195.206Z" fill="#7DAFC2"/>
<path d="M45.7124 206.27H52.9654V215.193H45.7124V206.27Z" fill="#7DAFC2"/>
<path d="M73.9187 186.283C73.9187 188.648 71.7538 190.566 69.0833 190.566C66.4128 190.566 64.2479 188.648 64.2479 186.283C64.2479 183.918 66.4128 182 69.0833 182C71.7538 182 73.9187 183.918 73.9187 186.283Z" fill="#7DAFC2"/>
<path d="M62.2332 195.206C62.2332 193.629 63.6765 192.35 65.4568 192.35H72.7098C74.4902 192.35 75.9334 193.629 75.9334 195.206V203.415C75.9334 204.992 74.4902 206.27 72.7098 206.27H65.4568C63.6765 206.27 62.2332 204.992 62.2332 203.415V195.206Z" fill="#7DAFC2"/>
<path d="M65.4568 206.27H72.7098V215.193H65.4568V206.27Z" fill="#7DAFC2"/>
<path d="M93.6631 186.283C93.6631 188.648 91.4982 190.566 88.8277 190.566C86.1572 190.566 83.9923 188.648 83.9923 186.283C83.9923 183.918 86.1572 182 88.8277 182C91.4982 182 93.6631 183.918 93.6631 186.283Z" fill="#7DAFC2"/>
<path d="M81.9776 195.206C81.9776 193.629 83.4209 192.35 85.2012 192.35H92.4542C94.2346 192.35 95.6778 193.629 95.6778 195.206V203.415C95.6778 204.992 94.2346 206.27 92.4542 206.27H85.2012C83.4209 206.27 81.9776 204.992 81.9776 203.415V195.206Z" fill="#7DAFC2"/>
<path d="M85.2012 206.27H92.4542V215.193H85.2012V206.27Z" fill="#7DAFC2"/>
<path d="M113.407 186.283C113.407 188.648 111.243 190.566 108.572 190.566C105.902 190.566 103.737 188.648 103.737 186.283C103.737 183.918 105.902 182 108.572 182C111.243 182 113.407 183.918 113.407 186.283Z" fill="#7DAFC2"/>
<path d="M101.722 195.206C101.722 193.629 103.165 192.35 104.946 192.35H112.199C113.979 192.35 115.422 193.629 115.422 195.206V203.415C115.422 204.992 113.979 206.27 112.199 206.27H104.946C103.165 206.27 101.722 204.992 101.722 203.415V195.206Z" fill="#7DAFC2"/>
<path d="M104.946 206.27H112.199V215.193H104.946V206.27Z" fill="#7DAFC2"/>
<path d="M14.6855 225.283C14.6855 227.648 12.5206 229.566 9.8501 229.566C7.1796 229.566 5.01473 227.648 5.01473 225.283C5.01473 222.918 7.1796 221 9.8501 221C12.5206 221 14.6855 222.918 14.6855 225.283Z" fill="#7DAFC2"/>
<path d="M3 234.206C3 232.629 4.44324 231.35 6.22358 231.35H13.4766C15.257 231.35 16.7002 232.629 16.7002 234.206V242.415C16.7002 243.992 15.257 245.27 13.4766 245.27H6.22358C4.44324 245.27 3 243.992 3 242.415V234.206Z" fill="#7DAFC2"/>
<path d="M6.22358 245.27H13.4766V254.193H6.22358L6.22358 245.27Z" fill="#7DAFC2"/>
<path d="M34.4299 225.283C34.4299 227.648 32.265 229.566 29.5945 229.566C26.924 229.566 24.7591 227.648 24.7591 225.283C24.7591 222.918 26.924 221 29.5945 221C32.265 221 34.4299 222.918 34.4299 225.283Z" fill="#7DAFC2"/>
<path d="M22.7444 234.206C22.7444 232.629 24.1876 231.35 25.968 231.35H33.221C35.0014 231.35 36.4446 232.629 36.4446 234.206V242.415C36.4446 243.992 35.0014 245.27 33.221 245.27H25.968C24.1876 245.27 22.7444 243.992 22.7444 242.415V234.206Z" fill="#7DAFC2"/>
<path d="M25.968 245.27H33.221V254.193H25.968V245.27Z" fill="#7DAFC2"/>
<path d="M54.1743 225.283C54.1743 227.648 52.0094 229.566 49.3389 229.566C46.6684 229.566 44.5035 227.648 44.5035 225.283C44.5035 222.918 46.6684 221 49.3389 221C52.0094 221 54.1743 222.918 54.1743 225.283Z" fill="#7DAFC2"/>
<path d="M42.4888 234.206C42.4888 232.629 43.9321 231.35 45.7124 231.35H52.9654C54.7458 231.35 56.189 232.629 56.189 234.206V242.415C56.189 243.992 54.7458 245.27 52.9654 245.27H45.7124C43.9321 245.27 42.4888 243.992 42.4888 242.415V234.206Z" fill="#7DAFC2"/>
<path d="M45.7124 245.27H52.9654V254.193H45.7124V245.27Z" fill="#7DAFC2"/>
<path d="M73.9187 225.283C73.9187 227.648 71.7538 229.566 69.0833 229.566C66.4128 229.566 64.2479 227.648 64.2479 225.283C64.2479 222.918 66.4128 221 69.0833 221C71.7538 221 73.9187 222.918 73.9187 225.283Z" fill="#7DAFC2"/>
<path d="M62.2332 234.206C62.2332 232.629 63.6765 231.35 65.4568 231.35H72.7098C74.4902 231.35 75.9334 232.629 75.9334 234.206V242.415C75.9334 243.992 74.4902 245.27 72.7098 245.27H65.4568C63.6765 245.27 62.2332 243.992 62.2332 242.415V234.206Z" fill="#7DAFC2"/>
<path d="M65.4568 245.27H72.7098V254.193H65.4568V245.27Z" fill="#7DAFC2"/>
<path d="M93.6631 225.283C93.6631 227.648 91.4982 229.566 88.8277 229.566C86.1572 229.566 83.9923 227.648 83.9923 225.283C83.9923 222.918 86.1572 221 88.8277 221C91.4982 221 93.6631 222.918 93.6631 225.283Z" fill="#7DAFC2"/>
<path d="M81.9776 234.206C81.9776 232.629 83.4209 231.35 85.2012 231.35H92.4542C94.2346 231.35 95.6778 232.629 95.6778 234.206V242.415C95.6778 243.992 94.2346 245.27 92.4542 245.27H85.2012C83.4209 245.27 81.9776 243.992 81.9776 242.415V234.206Z" fill="#7DAFC2"/>
<path d="M85.2012 245.27H92.4542V254.193H85.2012V245.27Z" fill="#7DAFC2"/>
<path d="M113.407 225.283C113.407 227.648 111.243 229.566 108.572 229.566C105.902 229.566 103.737 227.648 103.737 225.283C103.737 222.918 105.902 221 108.572 221C111.243 221 113.407 222.918 113.407 225.283Z" fill="#7DAFC2"/>
<path d="M101.722 234.206C101.722 232.629 103.165 231.35 104.946 231.35H112.199C113.979 231.35 115.422 232.629 115.422 234.206V242.415C115.422 243.992 113.979 245.27 112.199 245.27H104.946C103.165 245.27 101.722 243.992 101.722 242.415V234.206Z" fill="#7DAFC2"/>
<path d="M104.946 245.27H112.199V254.193H104.946V245.27Z" fill="#7DAFC2"/>
<path d="M251.215 186.092C251.215 188.458 249.05 190.375 246.38 190.375C243.709 190.375 241.545 188.458 241.545 186.092C241.545 183.727 243.709 181.81 246.38 181.81C249.05 181.81 251.215 183.727 251.215 186.092Z" fill="#7DAFC2"/>
<path d="M239.53 195.015C239.53 193.438 240.973 192.16 242.753 192.16H250.007C251.787 192.16 253.23 193.438 253.23 195.015V203.224C253.23 204.801 251.787 206.079 250.007 206.079H242.753C240.973 206.079 239.53 204.801 239.53 203.224V195.015Z" fill="#7DAFC2"/>
<path d="M242.753 206.079H250.007V215.002H242.753V206.079Z" fill="#7DAFC2"/>
<path d="M270.96 186.092C270.96 188.458 268.795 190.375 266.124 190.375C263.454 190.375 261.289 188.458 261.289 186.092C261.289 183.727 263.454 181.81 266.124 181.81C268.795 181.81 270.96 183.727 270.96 186.092Z" fill="#7DAFC2"/>
<path d="M259.274 195.015C259.274 193.438 260.718 192.16 262.498 192.16H269.751C271.531 192.16 272.974 193.438 272.974 195.015V203.224C272.974 204.801 271.531 206.079 269.751 206.079H262.498C260.718 206.079 259.274 204.801 259.274 203.224V195.015Z" fill="#7DAFC2"/>
<path d="M262.498 206.079H269.751V215.002H262.498V206.079Z" fill="#7DAFC2"/>
<path d="M290.704 186.092C290.704 188.458 288.539 190.375 285.869 190.375C283.198 190.375 281.033 188.458 281.033 186.092C281.033 183.727 283.198 181.81 285.869 181.81C288.539 181.81 290.704 183.727 290.704 186.092Z" fill="#7DAFC2"/>
<path d="M279.019 195.015C279.019 193.438 280.462 192.16 282.242 192.16H289.495C291.276 192.16 292.719 193.438 292.719 195.015V203.224C292.719 204.801 291.276 206.079 289.495 206.079H282.242C280.462 206.079 279.019 204.801 279.019 203.224V195.015Z" fill="#7DAFC2"/>
<path d="M282.242 206.079H289.495V215.002H282.242V206.079Z" fill="#7DAFC2"/>
<path d="M310.449 186.092C310.449 188.458 308.284 190.375 305.613 190.375C302.943 190.375 300.778 188.458 300.778 186.092C300.778 183.727 302.943 181.81 305.613 181.81C308.284 181.81 310.449 183.727 310.449 186.092Z" fill="#7DAFC2"/>
<path d="M298.763 195.015C298.763 193.438 300.206 192.16 301.987 192.16H309.24C311.02 192.16 312.463 193.438 312.463 195.015V203.224C312.463 204.801 311.02 206.079 309.24 206.079H301.987C300.206 206.079 298.763 204.801 298.763 203.224V195.015Z" fill="#7DAFC2"/>
<path d="M301.987 206.079H309.24V215.002H301.987V206.079Z" fill="#7DAFC2"/>
<path d="M330.193 186.092C330.193 188.458 328.028 190.375 325.358 190.375C322.687 190.375 320.522 188.458 320.522 186.092C320.522 183.727 322.687 181.81 325.358 181.81C328.028 181.81 330.193 183.727 330.193 186.092Z" fill="#7DAFC2"/>
<path d="M318.507 195.015C318.507 193.438 319.951 192.16 321.731 192.16H328.984C330.764 192.16 332.208 193.438 332.208 195.015V203.224C332.208 204.801 330.764 206.079 328.984 206.079H321.731C319.951 206.079 318.507 204.801 318.507 203.224V195.015Z" fill="#7DAFC2"/>
<path d="M321.731 206.079H328.984V215.002H321.731V206.079Z" fill="#7DAFC2"/>
<path d="M349.937 186.092C349.937 188.458 347.772 190.375 345.102 190.375C342.431 190.375 340.267 188.458 340.267 186.092C340.267 183.727 342.431 181.81 345.102 181.81C347.772 181.81 349.937 183.727 349.937 186.092Z" fill="#7DAFC2"/>
<path d="M338.252 195.015C338.252 193.438 339.695 192.16 341.475 192.16H348.729C350.509 192.16 351.952 193.438 351.952 195.015V203.224C351.952 204.801 350.509 206.079 348.729 206.079H341.475C339.695 206.079 338.252 204.801 338.252 203.224V195.015Z" fill="#7DAFC2"/>
<path d="M341.475 206.079H348.729V215.002H341.475V206.079Z" fill="#7DAFC2"/>
<path d="M368.876 186.092C368.876 188.458 366.711 190.375 364.04 190.375C361.37 190.375 359.205 188.458 359.205 186.092C359.205 183.727 361.37 181.81 364.04 181.81C366.711 181.81 368.876 183.727 368.876 186.092Z" fill="#7DAFC2"/>
<path d="M357.19 195.015C357.19 193.438 358.634 192.16 360.414 192.16H367.667C369.447 192.16 370.891 193.438 370.891 195.015V203.224C370.891 204.801 369.447 206.079 367.667 206.079H360.414C358.634 206.079 357.19 204.801 357.19 203.224V195.015Z" fill="#7DAFC2"/>
<path d="M360.414 206.079H367.667V215.002H360.414V206.079Z" fill="#7DAFC2"/>
<path d="M368.876 224.282C368.876 226.647 366.711 228.565 364.04 228.565C361.37 228.565 359.205 226.647 359.205 224.282C359.205 221.916 361.37 219.999 364.04 219.999C366.711 219.999 368.876 221.916 368.876 224.282Z" fill="#7DAFC2"/>
<path d="M357.19 233.205C357.19 231.628 358.634 230.349 360.414 230.349H367.667C369.447 230.349 370.891 231.628 370.891 233.205V241.414C370.891 242.99 369.447 244.269 367.667 244.269H360.414C358.634 244.269 357.19 242.99 357.19 241.414V233.205Z" fill="#7DAFC2"/>
<path d="M360.414 244.269H367.667V253.192H360.414V244.269Z" fill="#7DAFC2"/>
<path d="M368.876 261.044C368.876 263.409 366.711 265.326 364.04 265.326C361.37 265.326 359.205 263.409 359.205 261.044C359.205 258.678 361.37 256.761 364.04 256.761C366.711 256.761 368.876 258.678 368.876 261.044Z" fill="#7DAFC2"/>
<path d="M357.19 269.966C357.19 268.389 358.634 267.111 360.414 267.111H367.667C369.447 267.111 370.891 268.389 370.891 269.966V278.175C370.891 279.752 369.447 281.03 367.667 281.03H360.414C358.634 281.03 357.19 279.752 357.19 278.175V269.966Z" fill="#7DAFC2"/>
<path d="M360.414 281.03H367.667V289.953H360.414V281.03Z" fill="#7DAFC2"/>
<path d="M14.6855 298.162C14.6855 300.528 12.5206 302.445 9.8501 302.445C7.1796 302.445 5.01473 300.528 5.01473 298.162C5.01473 295.797 7.1796 293.879 9.8501 293.879C12.5206 293.879 14.6855 295.797 14.6855 298.162Z" fill="#7DAFC2"/>
<path d="M3 307.085C3 305.508 4.44324 304.23 6.22358 304.23H13.4766C15.257 304.23 16.7002 305.508 16.7002 307.085V315.294C16.7002 316.871 15.257 318.149 13.4766 318.149H6.22358C4.44324 318.149 3 316.871 3 315.294V307.085Z" fill="#7DAFC2"/>
<path d="M6.22358 318.149H13.4766V327.072H6.22358L6.22358 318.149Z" fill="#7DAFC2"/>
<path d="M34.4299 298.162C34.4299 300.528 32.265 302.445 29.5945 302.445C26.924 302.445 24.7591 300.528 24.7591 298.162C24.7591 295.797 26.924 293.879 29.5945 293.879C32.265 293.879 34.4299 295.797 34.4299 298.162Z" fill="#7DAFC2"/>
<path d="M22.7444 307.085C22.7444 305.508 24.1876 304.23 25.968 304.23H33.221C35.0014 304.23 36.4446 305.508 36.4446 307.085V315.294C36.4446 316.871 35.0014 318.149 33.221 318.149H25.968C24.1876 318.149 22.7444 316.871 22.7444 315.294V307.085Z" fill="#7DAFC2"/>
<path d="M25.968 318.149H33.221V327.072H25.968V318.149Z" fill="#7DAFC2"/>
<path d="M94.066 298.162C94.066 300.528 91.9011 302.445 89.2307 302.445C86.5602 302.445 84.3953 300.528 84.3953 298.162C84.3953 295.797 86.5602 293.879 89.2307 293.879C91.9011 293.879 94.066 295.797 94.066 298.162Z" fill="#7DAFC2"/>
<path d="M82.3806 307.085C82.3806 305.508 83.8238 304.23 85.6041 304.23H92.8572C94.6375 304.23 96.0807 305.508 96.0807 307.085V315.294C96.0807 316.871 94.6375 318.149 92.8572 318.149H85.6041C83.8238 318.149 82.3806 316.871 82.3806 315.294V307.085Z" fill="#7DAFC2"/>
<path d="M85.6041 318.149H92.8572V327.072H85.6041V318.149Z" fill="#7DAFC2"/>
<path d="M54.1743 298.162C54.1743 300.528 52.0094 302.445 49.3389 302.445C46.6684 302.445 44.5035 300.528 44.5035 298.162C44.5035 295.797 46.6684 293.879 49.3389 293.879C52.0094 293.879 54.1743 295.797 54.1743 298.162Z" fill="#7DAFC2"/>
<path d="M42.4888 307.085C42.4888 305.508 43.932 304.23 45.7124 304.23H52.9654C54.7458 304.23 56.189 305.508 56.189 307.085V315.294C56.189 316.871 54.7458 318.149 52.9654 318.149H45.7124C43.932 318.149 42.4888 316.871 42.4888 315.294V307.085Z" fill="#7DAFC2"/>
<path d="M45.7124 318.149H52.9654V327.072H45.7124V318.149Z" fill="#7DAFC2"/>
<path d="M113.81 298.162C113.81 300.528 111.646 302.445 108.975 302.445C106.305 302.445 104.14 300.528 104.14 298.162C104.14 295.797 106.305 293.879 108.975 293.879C111.646 293.879 113.81 295.797 113.81 298.162Z" fill="#7DAFC2"/>
<path d="M102.125 307.085C102.125 305.508 103.568 304.23 105.349 304.23H112.602C114.382 304.23 115.825 305.508 115.825 307.085V315.294C115.825 316.871 114.382 318.149 112.602 318.149H105.349C103.568 318.149 102.125 316.871 102.125 315.294V307.085Z" fill="#7DAFC2"/>
<path d="M105.349 318.149H112.602V327.072H105.349V318.149Z" fill="#7DAFC2"/>
<path d="M73.1128 298.162C73.1128 300.528 70.9479 302.445 68.2774 302.445C65.6069 302.445 63.442 300.528 63.442 298.162C63.442 295.797 65.6069 293.879 68.2774 293.879C70.9479 293.879 73.1128 295.797 73.1128 298.162Z" fill="#7DAFC2"/>
<path d="M61.4273 307.085C61.4273 305.508 62.8706 304.23 64.6509 304.23H71.9039C73.6843 304.23 75.1275 305.508 75.1275 307.085V315.294C75.1275 316.871 73.6843 318.149 71.9039 318.149H64.6509C62.8706 318.149 61.4273 316.871 61.4273 315.294V307.085Z" fill="#7DAFC2"/>
<path d="M64.6509 318.149H71.9039V327.072H64.6509V318.149Z" fill="#7DAFC2"/>
<path d="M132.749 298.162C132.749 300.528 130.584 302.445 127.914 302.445C125.243 302.445 123.078 300.528 123.078 298.162C123.078 295.797 125.243 293.879 127.914 293.879C130.584 293.879 132.749 295.797 132.749 298.162Z" fill="#7DAFC2"/>
<path d="M121.063 307.085C121.063 305.508 122.507 304.23 124.287 304.23H131.54C133.32 304.23 134.764 305.508 134.764 307.085V315.294C134.764 316.871 133.32 318.149 131.54 318.149H124.287C122.507 318.149 121.063 316.871 121.063 315.294V307.085Z" fill="#7DAFC2"/>
<path d="M124.287 318.149H131.54V327.072H124.287V318.149Z" fill="#7DAFC2"/>
<path d="M152.896 298.162C152.896 300.528 150.731 302.445 148.061 302.445C145.39 302.445 143.226 300.528 143.226 298.162C143.226 295.797 145.39 293.879 148.061 293.879C150.731 293.879 152.896 295.797 152.896 298.162Z" fill="#7DAFC2"/>
<path d="M141.211 307.085C141.211 305.508 142.654 304.23 144.434 304.23H151.687C153.468 304.23 154.911 305.508 154.911 307.085V315.294C154.911 316.871 153.468 318.149 151.687 318.149H144.434C142.654 318.149 141.211 316.871 141.211 315.294V307.085Z" fill="#7DAFC2"/>
<path d="M144.434 318.149H151.687V327.072H144.434V318.149Z" fill="#7DAFC2"/>
<path d="M172.641 298.162C172.641 300.528 170.476 302.445 167.805 302.445C165.135 302.445 162.97 300.528 162.97 298.162C162.97 295.797 165.135 293.879 167.805 293.879C170.476 293.879 172.641 295.797 172.641 298.162Z" fill="#7DAFC2"/>
<path d="M160.955 307.085C160.955 305.508 162.398 304.23 164.179 304.23H171.432C173.212 304.23 174.655 305.508 174.655 307.085V315.294C174.655 316.871 173.212 318.149 171.432 318.149H164.179C162.398 318.149 160.955 316.871 160.955 315.294V307.085Z" fill="#7DAFC2"/>
<path d="M164.179 318.149H171.432V327.072H164.179V318.149Z" fill="#7DAFC2"/>
<path d="M232.277 298.162C232.277 300.528 230.112 302.445 227.441 302.445C224.771 302.445 222.606 300.528 222.606 298.162C222.606 295.797 224.771 293.879 227.441 293.879C230.112 293.879 232.277 295.797 232.277 298.162Z" fill="#7DAFC2"/>
<path d="M220.591 307.085C220.591 305.508 222.035 304.23 223.815 304.23H231.068C232.848 304.23 234.292 305.508 234.292 307.085V315.294C234.292 316.871 232.848 318.149 231.068 318.149H223.815C222.035 318.149 220.591 316.871 220.591 315.294V307.085Z" fill="#7DAFC2"/>
<path d="M223.815 318.149H231.068V327.072H223.815V318.149Z" fill="#7DAFC2"/>
<path d="M192.385 298.162C192.385 300.528 190.22 302.445 187.55 302.445C184.879 302.445 182.714 300.528 182.714 298.162C182.714 295.797 184.879 293.879 187.55 293.879C190.22 293.879 192.385 295.797 192.385 298.162Z" fill="#7DAFC2"/>
<path d="M180.7 307.085C180.7 305.508 182.143 304.23 183.923 304.23H191.176C192.957 304.23 194.4 305.508 194.4 307.085V315.294C194.4 316.871 192.957 318.149 191.176 318.149H183.923C182.143 318.149 180.7 316.871 180.7 315.294V307.085Z" fill="#7DAFC2"/>
<path d="M183.923 318.149H191.176V327.072H183.923V318.149Z" fill="#7DAFC2"/>
<path d="M252.021 298.162C252.021 300.528 249.856 302.445 247.186 302.445C244.515 302.445 242.351 300.528 242.351 298.162C242.351 295.797 244.515 293.879 247.186 293.879C249.856 293.879 252.021 295.797 252.021 298.162Z" fill="#7DAFC2"/>
<path d="M240.336 307.085C240.336 305.508 241.779 304.23 243.559 304.23H250.812C252.593 304.23 254.036 305.508 254.036 307.085V315.294C254.036 316.871 252.593 318.149 250.812 318.149H243.559C241.779 318.149 240.336 316.871 240.336 315.294V307.085Z" fill="#7DAFC2"/>
<path d="M243.559 318.149H250.812V327.072H243.559V318.149Z" fill="#7DAFC2"/>
<path d="M211.324 298.162C211.324 300.528 209.159 302.445 206.488 302.445C203.818 302.445 201.653 300.528 201.653 298.162C201.653 295.797 203.818 293.879 206.488 293.879C209.159 293.879 211.324 295.797 211.324 298.162Z" fill="#7DAFC2"/>
<path d="M199.638 307.085C199.638 305.508 201.081 304.23 202.862 304.23H210.115C211.895 304.23 213.338 305.508 213.338 307.085V315.294C213.338 316.871 211.895 318.149 210.115 318.149H202.862C201.081 318.149 199.638 316.871 199.638 315.294V307.085Z" fill="#7DAFC2"/>
<path d="M202.862 318.149H210.115V327.072H202.862V318.149Z" fill="#7DAFC2"/>
<path d="M270.96 298.162C270.96 300.528 268.795 302.445 266.124 302.445C263.454 302.445 261.289 300.528 261.289 298.162C261.289 295.797 263.454 293.879 266.124 293.879C268.795 293.879 270.96 295.797 270.96 298.162Z" fill="#7DAFC2"/>
<path d="M259.274 307.085C259.274 305.508 260.718 304.23 262.498 304.23H269.751C271.531 304.23 272.974 305.508 272.974 307.085V315.294C272.974 316.871 271.531 318.149 269.751 318.149H262.498C260.718 318.149 259.274 316.871 259.274 315.294V307.085Z" fill="#7DAFC2"/>
<path d="M262.498 318.149H269.751V327.072H262.498V318.149Z" fill="#7DAFC2"/>
<path d="M368.876 113.283C368.876 115.648 366.711 117.566 364.04 117.566C361.37 117.566 359.205 115.648 359.205 113.283C359.205 110.918 361.37 109 364.04 109C366.711 109 368.876 110.918 368.876 113.283Z" fill="#7DAFC2"/>
<path d="M357.19 122.206C357.19 120.629 358.634 119.35 360.414 119.35H367.667C369.447 119.35 370.891 120.629 370.891 122.206V130.415C370.891 131.992 369.447 133.27 367.667 133.27H360.414C358.634 133.27 357.19 131.992 357.19 130.415V122.206Z" fill="#7DAFC2"/>
<path d="M360.414 133.27H367.667V142.193H360.414V133.27Z" fill="#7DAFC2"/>
<path d="M368.876 150.045C368.876 152.41 366.711 154.328 364.04 154.328C361.37 154.328 359.205 152.41 359.205 150.045C359.205 147.679 361.37 145.762 364.04 145.762C366.711 145.762 368.876 147.679 368.876 150.045Z" fill="#7DAFC2"/>
<path d="M357.19 158.967C357.19 157.39 358.634 156.112 360.414 156.112H367.667C369.447 156.112 370.891 157.39 370.891 158.967V167.176C370.891 168.753 369.447 170.032 367.667 170.032H360.414C358.634 170.032 357.19 168.753 357.19 167.176V158.967Z" fill="#7DAFC2"/>
<path d="M360.414 170.032H367.667V178.954H360.414V170.032Z" fill="#7DAFC2"/>
<path d="M133.685 263.283C133.685 265.648 131.521 267.566 128.85 267.566C126.18 267.566 124.015 265.648 124.015 263.283C124.015 260.918 126.18 259 128.85 259C131.521 259 133.685 260.918 133.685 263.283Z" fill="#7DAFC2"/>
<path d="M122 272.206C122 270.629 123.443 269.35 125.224 269.35H132.477C134.257 269.35 135.7 270.629 135.7 272.206V280.415C135.7 281.992 134.257 283.27 132.477 283.27H125.224C123.443 283.27 122 281.992 122 280.415V272.206Z" fill="#7DAFC2"/>
<path d="M125.224 283.27H132.477V292.193H125.224L125.224 283.27Z" fill="#7DAFC2"/>
<path d="M153.43 263.283C153.43 265.648 151.265 267.566 148.595 267.566C145.924 267.566 143.759 265.648 143.759 263.283C143.759 260.918 145.924 259 148.595 259C151.265 259 153.43 260.918 153.43 263.283Z" fill="#7DAFC2"/>
<path d="M141.744 272.206C141.744 270.629 143.188 269.35 144.968 269.35H152.221C154.001 269.35 155.445 270.629 155.445 272.206V280.415C155.445 281.992 154.001 283.27 152.221 283.27H144.968C143.188 283.27 141.744 281.992 141.744 280.415V272.206Z" fill="#7DAFC2"/>
<path d="M144.968 283.27H152.221V292.193H144.968V283.27Z" fill="#7DAFC2"/>
<path d="M173.174 263.283C173.174 265.648 171.009 267.566 168.339 267.566C165.668 267.566 163.504 265.648 163.504 263.283C163.504 260.918 165.668 259 168.339 259C171.009 259 173.174 260.918 173.174 263.283Z" fill="#7DAFC2"/>
<path d="M161.489 272.206C161.489 270.629 162.932 269.35 164.712 269.35H171.965C173.746 269.35 175.189 270.629 175.189 272.206V280.415C175.189 281.992 173.746 283.27 171.965 283.27H164.712C162.932 283.27 161.489 281.992 161.489 280.415V272.206Z" fill="#7DAFC2"/>
<path d="M164.712 283.27H171.965V292.193H164.712V283.27Z" fill="#7DAFC2"/>
<path d="M192.919 263.283C192.919 265.648 190.754 267.566 188.083 267.566C185.413 267.566 183.248 265.648 183.248 263.283C183.248 260.918 185.413 259 188.083 259C190.754 259 192.919 260.918 192.919 263.283Z" fill="#7DAFC2"/>
<path d="M181.233 272.206C181.233 270.629 182.676 269.35 184.457 269.35H191.71C193.49 269.35 194.933 270.629 194.933 272.206V280.415C194.933 281.992 193.49 283.27 191.71 283.27H184.457C182.676 283.27 181.233 281.992 181.233 280.415V272.206Z" fill="#7DAFC2"/>
<path d="M184.457 283.27H191.71V292.193H184.457V283.27Z" fill="#7DAFC2"/>
<path d="M212.663 263.283C212.663 265.648 210.498 267.566 207.828 267.566C205.157 267.566 202.992 265.648 202.992 263.283C202.992 260.918 205.157 259 207.828 259C210.498 259 212.663 260.918 212.663 263.283Z" fill="#7DAFC2"/>
<path d="M200.978 272.206C200.978 270.629 202.421 269.35 204.201 269.35H211.454C213.235 269.35 214.678 270.629 214.678 272.206V280.415C214.678 281.992 213.235 283.27 211.454 283.27H204.201C202.421 283.27 200.978 281.992 200.978 280.415V272.206Z" fill="#7DAFC2"/>
<path d="M204.201 283.27H211.454V292.193H204.201V283.27Z" fill="#7DAFC2"/>
<path d="M232.407 263.283C232.407 265.648 230.243 267.566 227.572 267.566C224.902 267.566 222.737 265.648 222.737 263.283C222.737 260.918 224.902 259 227.572 259C230.243 259 232.407 260.918 232.407 263.283Z" fill="#7DAFC2"/>
<path d="M220.722 272.206C220.722 270.629 222.165 269.35 223.946 269.35H231.199C232.979 269.35 234.422 270.629 234.422 272.206V280.415C234.422 281.992 232.979 283.27 231.199 283.27H223.946C222.165 283.27 220.722 281.992 220.722 280.415V272.206Z" fill="#7DAFC2"/>
<path d="M223.946 283.27H231.199V292.193H223.946V283.27Z" fill="#7DAFC2"/>
<path d="M251.685 225.283C251.685 227.648 249.521 229.566 246.85 229.566C244.18 229.566 242.015 227.648 242.015 225.283C242.015 222.918 244.18 221 246.85 221C249.521 221 251.685 222.918 251.685 225.283Z" fill="#7DAFC2"/>
<path d="M240 234.206C240 232.629 241.443 231.35 243.224 231.35H250.477C252.257 231.35 253.7 232.629 253.7 234.206V242.415C253.7 243.992 252.257 245.27 250.477 245.27H243.224C241.443 245.27 240 243.992 240 242.415V234.206Z" fill="#7DAFC2"/>
<path d="M243.224 245.27H250.477V254.193H243.224L243.224 245.27Z" fill="#7DAFC2"/>
<path d="M271.43 225.283C271.43 227.648 269.265 229.566 266.595 229.566C263.924 229.566 261.759 227.648 261.759 225.283C261.759 222.918 263.924 221 266.595 221C269.265 221 271.43 222.918 271.43 225.283Z" fill="#7DAFC2"/>
<path d="M259.744 234.206C259.744 232.629 261.188 231.35 262.968 231.35H270.221C272.001 231.35 273.445 232.629 273.445 234.206V242.415C273.445 243.992 272.001 245.27 270.221 245.27H262.968C261.188 245.27 259.744 243.992 259.744 242.415V234.206Z" fill="#7DAFC2"/>
<path d="M262.968 245.27H270.221V254.193H262.968V245.27Z" fill="#7DAFC2"/>
<path d="M291.174 225.283C291.174 227.648 289.009 229.566 286.339 229.566C283.668 229.566 281.504 227.648 281.504 225.283C281.504 222.918 283.668 221 286.339 221C289.009 221 291.174 222.918 291.174 225.283Z" fill="#7DAFC2"/>
<path d="M279.489 234.206C279.489 232.629 280.932 231.35 282.712 231.35H289.965C291.746 231.35 293.189 232.629 293.189 234.206V242.415C293.189 243.992 291.746 245.27 289.965 245.27H282.712C280.932 245.27 279.489 243.992 279.489 242.415V234.206Z" fill="#7DAFC2"/>
<path d="M282.712 245.27H289.965V254.193H282.712V245.27Z" fill="#7DAFC2"/>
<path d="M310.919 225.283C310.919 227.648 308.754 229.566 306.083 229.566C303.413 229.566 301.248 227.648 301.248 225.283C301.248 222.918 303.413 221 306.083 221C308.754 221 310.919 222.918 310.919 225.283Z" fill="#7DAFC2"/>
<path d="M299.233 234.206C299.233 232.629 300.676 231.35 302.457 231.35H309.71C311.49 231.35 312.933 232.629 312.933 234.206V242.415C312.933 243.992 311.49 245.27 309.71 245.27H302.457C300.676 245.27 299.233 243.992 299.233 242.415V234.206Z" fill="#7DAFC2"/>
<path d="M302.457 245.27H309.71V254.193H302.457V245.27Z" fill="#7DAFC2"/>
<path d="M330.663 225.283C330.663 227.648 328.498 229.566 325.828 229.566C323.157 229.566 320.992 227.648 320.992 225.283C320.992 222.918 323.157 221 325.828 221C328.498 221 330.663 222.918 330.663 225.283Z" fill="#7DAFC2"/>
<path d="M318.978 234.206C318.978 232.629 320.421 231.35 322.201 231.35H329.454C331.235 231.35 332.678 232.629 332.678 234.206V242.415C332.678 243.992 331.235 245.27 329.454 245.27H322.201C320.421 245.27 318.978 243.992 318.978 242.415V234.206Z" fill="#7DAFC2"/>
<path d="M322.201 245.27H329.454V254.193H322.201V245.27Z" fill="#7DAFC2"/>
<path d="M350.407 225.283C350.407 227.648 348.243 229.566 345.572 229.566C342.902 229.566 340.737 227.648 340.737 225.283C340.737 222.918 342.902 221 345.572 221C348.243 221 350.407 222.918 350.407 225.283Z" fill="#7DAFC2"/>
<path d="M338.722 234.206C338.722 232.629 340.165 231.35 341.946 231.35H349.199C350.979 231.35 352.422 232.629 352.422 234.206V242.415C352.422 243.992 350.979 245.27 349.199 245.27H341.946C340.165 245.27 338.722 243.992 338.722 242.415V234.206Z" fill="#7DAFC2"/>
<path d="M341.946 245.27H349.199V254.193H341.946V245.27Z" fill="#7DAFC2"/>
<path d="M112.984 76.9751C112.984 79.3405 110.819 81.258 108.149 81.258C105.478 81.258 103.314 79.3405 103.314 76.9751C103.314 74.6097 105.478 72.6922 108.149 72.6922C110.819 72.6922 112.984 74.6097 112.984 76.9751Z" fill="#C087A2"/>
<path d="M104.522 96.9621H111.775V105.885H104.522V96.9621Z" fill="#C087A2"/>
<path d="M103.822 83.8254C104.123 83.1385 104.869 82.6857 105.701 82.6857H110.95C111.807 82.6857 112.569 83.165 112.852 83.8807L117.083 94.588C117.542 95.7483 116.569 96.9621 115.181 96.9621H101.017C99.6006 96.9621 98.6264 95.7023 99.1381 94.5327L103.822 83.8254Z" fill="#C087A2"/>
<path d="M132.729 76.9751C132.729 79.3405 130.564 81.258 127.893 81.258C125.223 81.258 123.058 79.3405 123.058 76.9751C123.058 74.6097 125.223 72.6922 127.893 72.6922C130.564 72.6922 132.729 74.6097 132.729 76.9751Z" fill="#C087A2"/>
<path d="M124.267 96.9621H131.52V105.885H124.267V96.9621Z" fill="#C087A2"/>
<path d="M123.567 83.8254C123.867 83.1385 124.614 82.6857 125.445 82.6857H130.695C131.551 82.6857 132.314 83.165 132.596 83.8807L136.827 94.588C137.286 95.7483 136.314 96.9621 134.926 96.9621H120.761C119.345 96.9621 118.371 95.7023 118.882 94.5327L123.567 83.8254Z" fill="#C087A2"/>
<path d="M112.984 40.4751C112.984 42.8405 110.819 44.758 108.149 44.758C105.478 44.758 103.314 42.8405 103.314 40.4751C103.314 38.1097 105.478 36.1922 108.149 36.1922C110.819 36.1922 112.984 38.1097 112.984 40.4751Z" fill="#C087A2"/>
<path d="M104.522 60.4621H111.775V69.3848H104.522V60.4621Z" fill="#C087A2"/>
<path d="M103.822 47.3254C104.123 46.6384 104.869 46.1857 105.701 46.1857H110.95C111.807 46.1857 112.569 46.6649 112.852 47.3807L117.083 58.088C117.542 59.2483 116.569 60.4621 115.181 60.4621H101.017C99.6006 60.4621 98.6264 59.2023 99.1381 58.0327L103.822 47.3254Z" fill="#C087A2"/>
<path d="M132.729 40.4751C132.729 42.8405 130.564 44.758 127.893 44.758C125.223 44.758 123.058 42.8405 123.058 40.4751C123.058 38.1098 125.223 36.1922 127.893 36.1922C130.564 36.1922 132.729 38.1098 132.729 40.4751Z" fill="#C087A2"/>
<path d="M124.267 60.4621H131.52V69.3848H124.267V60.4621Z" fill="#C087A2"/>
<path d="M123.567 47.3254C123.867 46.6385 124.614 46.1857 125.445 46.1857H130.695C131.551 46.1857 132.314 46.665 132.596 47.3807L136.827 58.088C137.286 59.2483 136.314 60.4621 134.926 60.4621H120.761C119.345 60.4621 118.371 59.2023 118.882 58.0327L123.567 47.3254Z" fill="#C087A2"/>
<path d="M112.984 4.28292C112.984 6.64831 110.819 8.56583 108.149 8.56583C105.478 8.56583 103.314 6.64831 103.314 4.28292C103.314 1.91753 105.478 0 108.149 0C110.819 0 112.984 1.91753 112.984 4.28292Z" fill="#C087A2"/>
<path d="M104.522 24.2699H111.775V33.1926H104.522V24.2699Z" fill="#C087A2"/>
<path d="M103.822 11.1332C104.123 10.4462 104.869 9.99347 105.701 9.99347H110.95C111.807 9.99347 112.569 10.4727 112.852 11.1885L117.083 21.8958C117.541 23.0561 116.569 24.2699 115.181 24.2699H101.017C99.6006 24.2699 98.6264 23.01 99.138 21.8405L103.822 11.1332Z" fill="#C087A2"/>
<path d="M132.729 4.2831C132.729 6.64849 130.564 8.56601 127.893 8.56601C125.223 8.56601 123.058 6.64849 123.058 4.2831C123.058 1.91771 125.223 0.000183105 127.893 0.000183105C130.564 0.000183105 132.729 1.91771 132.729 4.2831Z" fill="#C087A2"/>
<path d="M124.267 24.2701H131.52V33.1928H124.267V24.2701Z" fill="#C087A2"/>
<path d="M123.567 11.1334C123.867 10.4464 124.614 9.99365 125.445 9.99365H130.695C131.551 9.99365 132.314 10.4729 132.597 11.1887L136.827 21.896C137.286 23.0562 136.314 24.2701 134.926 24.2701H120.761C119.345 24.2701 118.371 23.0102 118.882 21.8407L123.567 11.1334Z" fill="#C087A2"/>
<path d="M151.984 40.2829C151.984 42.6483 149.819 44.5658 147.149 44.5658C144.478 44.5658 142.314 42.6483 142.314 40.2829C142.314 37.9175 144.478 36 147.149 36C149.819 36 151.984 37.9175 151.984 40.2829Z" fill="#C087A2"/>
<path d="M143.522 60.2699H150.775V69.1926H143.522V60.2699Z" fill="#C087A2"/>
<path d="M142.822 47.1332C143.123 46.4462 143.869 45.9935 144.701 45.9935H149.95C150.807 45.9935 151.569 46.4727 151.852 47.1885L156.083 57.8958C156.541 59.0561 155.569 60.2699 154.181 60.2699H140.017C138.601 60.2699 137.626 59.01 138.138 57.8405L142.822 47.1332Z" fill="#C087A2"/>
<path d="M171.729 40.2829C171.729 42.6483 169.564 44.5658 166.893 44.5658C164.223 44.5658 162.058 42.6483 162.058 40.2829C162.058 37.9175 164.223 36 166.893 36C169.564 36 171.729 37.9175 171.729 40.2829Z" fill="#C087A2"/>
<path d="M163.267 60.2699H170.52V69.1926H163.267V60.2699Z" fill="#C087A2"/>
<path d="M162.567 47.1332C162.867 46.4462 163.614 45.9935 164.445 45.9935H169.695C170.551 45.9935 171.314 46.4727 171.596 47.1885L175.827 57.8958C176.286 59.0561 175.314 60.2699 173.926 60.2699H159.761C158.345 60.2699 157.371 59.01 157.882 57.8405L162.567 47.1332Z" fill="#C087A2"/>
<path d="M191.473 40.2829C191.473 42.6483 189.308 44.5658 186.638 44.5658C183.967 44.5658 181.802 42.6483 181.802 40.2829C181.802 37.9175 183.967 36 186.638 36C189.308 36 191.473 37.9175 191.473 40.2829Z" fill="#C087A2"/>
<path d="M183.011 60.2699H190.264V69.1926H183.011V60.2699Z" fill="#C087A2"/>
<path d="M182.311 47.1332C182.612 46.4462 183.358 45.9935 184.19 45.9935H189.439C190.295 45.9935 191.058 46.4727 191.341 47.1885L195.572 57.8958C196.03 59.0561 195.058 60.2699 193.67 60.2699H179.505C178.089 60.2699 177.115 59.01 177.627 57.8405L182.311 47.1332Z" fill="#C087A2"/>
<path d="M211.217 40.2829C211.217 42.6483 209.053 44.5658 206.382 44.5658C203.712 44.5658 201.547 42.6483 201.547 40.2829C201.547 37.9175 203.712 36 206.382 36C209.053 36 211.217 37.9175 211.217 40.2829Z" fill="#C087A2"/>
<path d="M202.756 60.2699H210.009V69.1926H202.756V60.2699Z" fill="#C087A2"/>
<path d="M202.055 47.1332C202.356 46.4462 203.102 45.9935 203.934 45.9935H209.184C210.04 45.9935 210.802 46.4727 211.085 47.1885L215.316 57.8958C215.775 59.0561 214.802 60.2699 213.415 60.2699H199.25C197.834 60.2699 196.86 59.01 197.371 57.8405L202.055 47.1332Z" fill="#C087A2"/>
<path d="M230.962 40.2829C230.962 42.6483 228.797 44.5658 226.127 44.5658C223.456 44.5658 221.291 42.6483 221.291 40.2829C221.291 37.9175 223.456 36 226.127 36C228.797 36 230.962 37.9175 230.962 40.2829Z" fill="#C087A2"/>
<path d="M222.5 60.2699H229.753V69.1926H222.5V60.2699Z" fill="#C087A2"/>
<path d="M221.8 47.1332C222.1 46.4462 222.847 45.9935 223.679 45.9935H228.928C229.784 45.9935 230.547 46.4727 230.83 47.1885L235.061 57.8958C235.519 59.0561 234.547 60.2699 233.159 60.2699H218.994C217.578 60.2699 216.604 59.01 217.116 57.8405L221.8 47.1332Z" fill="#C087A2"/>
<path d="M250.706 40.2829C250.706 42.6483 248.541 44.5658 245.871 44.5658C243.2 44.5658 241.036 42.6483 241.036 40.2829C241.036 37.9175 243.2 36 245.871 36C248.541 36 250.706 37.9175 250.706 40.2829Z" fill="#C087A2"/>
<path d="M242.244 60.2699H249.497V69.1926H242.244V60.2699Z" fill="#C087A2"/>
<path d="M241.544 47.1332C241.845 46.4462 242.591 45.9935 243.423 45.9935H248.672C249.529 45.9935 250.291 46.4727 250.574 47.1885L254.805 57.8958C255.263 59.0561 254.291 60.2699 252.903 60.2699H238.739C237.323 60.2699 236.348 59.01 236.86 57.8405L241.544 47.1332Z" fill="#C087A2"/>
<path d="M270.048 40.2829C270.048 42.6483 267.883 44.5658 265.212 44.5658C262.542 44.5658 260.377 42.6483 260.377 40.2829C260.377 37.9175 262.542 36 265.212 36C267.883 36 270.048 37.9175 270.048 40.2829Z" fill="#C087A2"/>
<path d="M261.586 60.2699H268.839V69.1926H261.586V60.2699Z" fill="#C087A2"/>
<path d="M260.886 47.1332C261.186 46.4462 261.933 45.9935 262.764 45.9935H268.014C268.87 45.9935 269.633 46.4727 269.916 47.1885L274.146 57.8958C274.605 59.0561 273.633 60.2699 272.245 60.2699H258.08C256.664 60.2699 255.69 59.01 256.201 57.8405L260.886 47.1332Z" fill="#C087A2"/>
<path d="M289.792 40.2829C289.792 42.6483 287.627 44.5658 284.957 44.5658C282.286 44.5658 280.121 42.6483 280.121 40.2829C280.121 37.9175 282.286 36 284.957 36C287.627 36 289.792 37.9175 289.792 40.2829Z" fill="#C087A2"/>
<path d="M281.33 60.2699H288.583V69.1926H281.33V60.2699Z" fill="#C087A2"/>
<path d="M280.63 47.1332C280.931 46.4462 281.677 45.9935 282.509 45.9935H287.758C288.614 45.9935 289.377 46.4727 289.66 47.1885L293.891 57.8958C294.349 59.0561 293.377 60.2699 291.989 60.2699H277.825C276.408 60.2699 275.434 59.01 275.946 57.8405L280.63 47.1332Z" fill="#C087A2"/>
<path d="M309.537 40.2829C309.537 42.6483 307.372 44.5658 304.701 44.5658C302.031 44.5658 299.866 42.6483 299.866 40.2829C299.866 37.9175 302.031 36 304.701 36C307.372 36 309.537 37.9175 309.537 40.2829Z" fill="#C087A2"/>
<path d="M301.075 60.2699H308.328V69.1926H301.075V60.2699Z" fill="#C087A2"/>
<path d="M300.375 47.1332C300.675 46.4462 301.421 45.9935 302.253 45.9935H307.503C308.359 45.9935 309.122 46.4727 309.404 47.1885L313.635 57.8958C314.094 59.0561 313.121 60.2699 311.734 60.2699H297.569C296.153 60.2699 295.179 59.01 295.69 57.8405L300.375 47.1332Z" fill="#C087A2"/>
<path d="M329.281 40.2829C329.281 42.6483 327.116 44.5658 324.446 44.5658C321.775 44.5658 319.61 42.6483 319.61 40.2829C319.61 37.9175 321.775 36 324.446 36C327.116 36 329.281 37.9175 329.281 40.2829Z" fill="#C087A2"/>
<path d="M320.819 60.2699H328.072V69.1926H320.819V60.2699Z" fill="#C087A2"/>
<path d="M320.119 47.1332C320.419 46.4462 321.166 45.9935 321.998 45.9935H327.247C328.103 45.9935 328.866 46.4727 329.149 47.1885L333.38 57.8958C333.838 59.0561 332.866 60.2699 331.478 60.2699H317.313C315.897 60.2699 314.923 59.01 315.435 57.8405L320.119 47.1332Z" fill="#C087A2"/>
<path d="M349.025 40.2829C349.025 42.6483 346.86 44.5658 344.19 44.5658C341.519 44.5658 339.355 42.6483 339.355 40.2829C339.355 37.9175 341.519 36 344.19 36C346.86 36 349.025 37.9175 349.025 40.2829Z" fill="#C087A2"/>
<path d="M340.563 60.2699H347.816V69.1926H340.563V60.2699Z" fill="#C087A2"/>
<path d="M339.863 47.1332C340.164 46.4462 340.91 45.9935 341.742 45.9935H346.991C347.848 45.9935 348.61 46.4727 348.893 47.1885L353.124 57.8958C353.583 59.0561 352.61 60.2699 351.222 60.2699H337.058C335.642 60.2699 334.667 59.01 335.179 57.8405L339.863 47.1332Z" fill="#C087A2"/>
<path d="M368.77 40.2829C368.77 42.6483 366.605 44.5658 363.934 44.5658C361.264 44.5658 359.099 42.6483 359.099 40.2829C359.099 37.9175 361.264 36 363.934 36C366.605 36 368.77 37.9175 368.77 40.2829Z" fill="#C087A2"/>
<path d="M360.308 60.2699H367.561V69.1926H360.308V60.2699Z" fill="#C087A2"/>
<path d="M359.608 47.1332C359.908 46.4462 360.655 45.9935 361.486 45.9935H366.736C367.592 45.9935 368.355 46.4727 368.638 47.1885L372.868 57.8958C373.327 59.0561 372.355 60.2699 370.967 60.2699H356.802C355.386 60.2699 354.412 59.01 354.923 57.8405L359.608 47.1332Z" fill="#C087A2"/>
<path d="M270.048 77.4015C270.048 79.7669 267.883 81.6844 265.212 81.6844C262.542 81.6844 260.377 79.7669 260.377 77.4015C260.377 75.0361 262.542 73.1186 265.212 73.1186C267.883 73.1186 270.048 75.0361 270.048 77.4015Z" fill="#C087A2"/>
<path d="M261.586 97.3885H268.839V106.311H261.586V97.3885Z" fill="#C087A2"/>
<path d="M260.886 84.2518C261.186 83.5648 261.933 83.1121 262.764 83.1121H268.014C268.87 83.1121 269.633 83.5913 269.916 84.3071L274.146 95.0144C274.605 96.1747 273.633 97.3885 272.245 97.3885H258.08C256.664 97.3885 255.69 96.1287 256.201 94.9591L260.886 84.2518Z" fill="#C087A2"/>
<path d="M289.792 77.4015C289.792 79.7669 287.627 81.6844 284.957 81.6844C282.286 81.6844 280.121 79.7669 280.121 77.4015C280.121 75.0361 282.286 73.1186 284.957 73.1186C287.627 73.1186 289.792 75.0361 289.792 77.4015Z" fill="#C087A2"/>
<path d="M281.33 97.3885H288.583V106.311H281.33V97.3885Z" fill="#C087A2"/>
<path d="M280.63 84.2518C280.931 83.5648 281.677 83.1121 282.509 83.1121H287.758C288.614 83.1121 289.377 83.5913 289.66 84.3071L293.891 95.0144C294.349 96.1747 293.377 97.3885 291.989 97.3885H277.825C276.408 97.3885 275.434 96.1287 275.946 94.9591L280.63 84.2518Z" fill="#C087A2"/>
<path d="M309.537 77.4015C309.537 79.7669 307.372 81.6844 304.701 81.6844C302.031 81.6844 299.866 79.7669 299.866 77.4015C299.866 75.0361 302.031 73.1186 304.701 73.1186C307.372 73.1186 309.537 75.0361 309.537 77.4015Z" fill="#C087A2"/>
<path d="M301.075 97.3885H308.328V106.311H301.075V97.3885Z" fill="#C087A2"/>
<path d="M300.375 84.2518C300.675 83.5648 301.421 83.1121 302.253 83.1121H307.503C308.359 83.1121 309.122 83.5913 309.404 84.3071L313.635 95.0144C314.094 96.1747 313.121 97.3885 311.734 97.3885H297.569C296.153 97.3885 295.179 96.1287 295.69 94.9591L300.375 84.2518Z" fill="#C087A2"/>
<path d="M329.281 77.4015C329.281 79.7669 327.116 81.6844 324.446 81.6844C321.775 81.6844 319.61 79.7669 319.61 77.4015C319.61 75.0361 321.775 73.1186 324.446 73.1186C327.116 73.1186 329.281 75.0361 329.281 77.4015Z" fill="#C087A2"/>
<path d="M320.819 97.3885H328.072V106.311H320.819V97.3885Z" fill="#C087A2"/>
<path d="M320.119 84.2518C320.419 83.5648 321.166 83.1121 321.998 83.1121H327.247C328.103 83.1121 328.866 83.5913 329.149 84.3071L333.38 95.0144C333.838 96.1747 332.866 97.3885 331.478 97.3885H317.313C315.897 97.3885 314.923 96.1287 315.435 94.9591L320.119 84.2518Z" fill="#C087A2"/>
<path d="M349.025 77.4015C349.025 79.7669 346.86 81.6844 344.19 81.6844C341.519 81.6844 339.355 79.7669 339.355 77.4015C339.355 75.0361 341.519 73.1186 344.19 73.1186C346.86 73.1186 349.025 75.0361 349.025 77.4015Z" fill="#C087A2"/>
<path d="M340.563 97.3885H347.816V106.311H340.563V97.3885Z" fill="#C087A2"/>
<path d="M339.863 84.2518C340.164 83.5648 340.91 83.1121 341.742 83.1121H346.991C347.848 83.1121 348.61 83.5913 348.893 84.3071L353.124 95.0144C353.583 96.1747 352.61 97.3885 351.222 97.3885H337.058C335.642 97.3885 334.667 96.1287 335.179 94.9591L339.863 84.2518Z" fill="#C087A2"/>
<path d="M368.77 77.4015C368.77 79.7669 366.605 81.6844 363.934 81.6844C361.264 81.6844 359.099 79.7669 359.099 77.4015C359.099 75.0361 361.264 73.1186 363.934 73.1186C366.605 73.1186 368.77 75.0361 368.77 77.4015Z" fill="#C087A2"/>
<path d="M360.308 97.3885H367.561V106.311H360.308V97.3885Z" fill="#C087A2"/>
<path d="M359.608 84.2518C359.908 83.5648 360.655 83.1121 361.486 83.1121H366.736C367.592 83.1121 368.355 83.5913 368.638 84.3071L372.868 95.0144C373.327 96.1747 372.355 97.3885 370.967 97.3885H356.802C355.386 97.3885 354.412 96.1287 354.923 94.9591L359.608 84.2518Z" fill="#C087A2"/>
<path d="M151.984 77.2829C151.984 79.6483 149.819 81.5658 147.149 81.5658C144.478 81.5658 142.314 79.6483 142.314 77.2829C142.314 74.9175 144.478 73 147.149 73C149.819 73 151.984 74.9175 151.984 77.2829Z" fill="#C087A2"/>
<path d="M143.522 97.2699H150.775V106.193H143.522V97.2699Z" fill="#C087A2"/>
<path d="M142.822 84.1332C143.123 83.4462 143.869 82.9935 144.701 82.9935H149.95C150.807 82.9935 151.569 83.4727 151.852 84.1885L156.083 94.8958C156.541 96.0561 155.569 97.2699 154.181 97.2699H140.017C138.601 97.2699 137.626 96.01 138.138 94.8405L142.822 84.1332Z" fill="#C087A2"/>
<path d="M171.729 77.2829C171.729 79.6483 169.564 81.5658 166.893 81.5658C164.223 81.5658 162.058 79.6483 162.058 77.2829C162.058 74.9175 164.223 73 166.893 73C169.564 73 171.729 74.9175 171.729 77.2829Z" fill="#C087A2"/>
<path d="M163.267 97.2699H170.52V106.193H163.267V97.2699Z" fill="#C087A2"/>
<path d="M162.567 84.1332C162.867 83.4462 163.614 82.9935 164.445 82.9935H169.695C170.551 82.9935 171.314 83.4727 171.596 84.1885L175.827 94.8958C176.286 96.0561 175.314 97.2699 173.926 97.2699H159.761C158.345 97.2699 157.371 96.01 157.882 94.8405L162.567 84.1332Z" fill="#C087A2"/>
<path d="M191.473 77.2829C191.473 79.6483 189.308 81.5658 186.638 81.5658C183.967 81.5658 181.802 79.6483 181.802 77.2829C181.802 74.9175 183.967 73 186.638 73C189.308 73 191.473 74.9175 191.473 77.2829Z" fill="#C087A2"/>
<path d="M183.011 97.2699H190.264V106.193H183.011V97.2699Z" fill="#C087A2"/>
<path d="M182.311 84.1332C182.612 83.4462 183.358 82.9935 184.19 82.9935H189.439C190.295 82.9935 191.058 83.4727 191.341 84.1885L195.572 94.8958C196.03 96.0561 195.058 97.2699 193.67 97.2699H179.505C178.089 97.2699 177.115 96.01 177.627 94.8405L182.311 84.1332Z" fill="#C087A2"/>
<path d="M211.217 77.2829C211.217 79.6483 209.053 81.5658 206.382 81.5658C203.712 81.5658 201.547 79.6483 201.547 77.2829C201.547 74.9175 203.712 73 206.382 73C209.053 73 211.217 74.9175 211.217 77.2829Z" fill="#C087A2"/>
<path d="M202.756 97.2699H210.009V106.193H202.756V97.2699Z" fill="#C087A2"/>
<path d="M202.055 84.1332C202.356 83.4462 203.102 82.9935 203.934 82.9935H209.184C210.04 82.9935 210.802 83.4727 211.085 84.1885L215.316 94.8958C215.775 96.0561 214.802 97.2699 213.415 97.2699H199.25C197.834 97.2699 196.86 96.01 197.371 94.8405L202.055 84.1332Z" fill="#C087A2"/>
<path d="M230.962 77.2829C230.962 79.6483 228.797 81.5658 226.127 81.5658C223.456 81.5658 221.291 79.6483 221.291 77.2829C221.291 74.9175 223.456 73 226.127 73C228.797 73 230.962 74.9175 230.962 77.2829Z" fill="#C087A2"/>
<path d="M222.5 97.2699H229.753V106.193H222.5V97.2699Z" fill="#C087A2"/>
<path d="M221.8 84.1332C222.1 83.4462 222.847 82.9935 223.679 82.9935H228.928C229.784 82.9935 230.547 83.4727 230.83 84.1885L235.061 94.8958C235.519 96.0561 234.547 97.2699 233.159 97.2699H218.994C217.578 97.2699 216.604 96.01 217.116 94.8405L221.8 84.1332Z" fill="#C087A2"/>
<path d="M250.706 77.2829C250.706 79.6483 248.541 81.5658 245.871 81.5658C243.2 81.5658 241.036 79.6483 241.036 77.2829C241.036 74.9175 243.2 73 245.871 73C248.541 73 250.706 74.9175 250.706 77.2829Z" fill="#C087A2"/>
<path d="M242.244 97.2699H249.497V106.193H242.244V97.2699Z" fill="#C087A2"/>
<path d="M241.544 84.1332C241.845 83.4462 242.591 82.9935 243.423 82.9935H248.672C249.529 82.9935 250.291 83.4727 250.574 84.1885L254.805 94.8958C255.263 96.0561 254.291 97.2699 252.903 97.2699H238.739C237.323 97.2699 236.348 96.01 236.86 94.8405L241.544 84.1332Z" fill="#C087A2"/>
<path d="M151.984 4.28292C151.984 6.64831 149.819 8.56583 147.149 8.56583C144.478 8.56583 142.314 6.64831 142.314 4.28292C142.314 1.91753 144.478 0 147.149 0C149.819 0 151.984 1.91753 151.984 4.28292Z" fill="#C087A2"/>
<path d="M143.522 24.2699H150.775V33.1926H143.522V24.2699Z" fill="#C087A2"/>
<path d="M142.822 11.1332C143.123 10.4462 143.869 9.99347 144.701 9.99347H149.95C150.807 9.99347 151.569 10.4727 151.852 11.1885L156.083 21.8958C156.541 23.0561 155.569 24.2699 154.181 24.2699H140.017C138.601 24.2699 137.626 23.01 138.138 21.8405L142.822 11.1332Z" fill="#C087A2"/>
<path d="M171.729 4.28292C171.729 6.64831 169.564 8.56583 166.893 8.56583C164.223 8.56583 162.058 6.64831 162.058 4.28292C162.058 1.91753 164.223 0 166.893 0C169.564 0 171.729 1.91753 171.729 4.28292Z" fill="#C087A2"/>
<path d="M163.267 24.2699H170.52V33.1926H163.267V24.2699Z" fill="#C087A2"/>
<path d="M162.567 11.1332C162.867 10.4462 163.614 9.99347 164.445 9.99347H169.695C170.551 9.99347 171.314 10.4727 171.596 11.1885L175.827 21.8958C176.286 23.0561 175.314 24.2699 173.926 24.2699H159.761C158.345 24.2699 157.371 23.01 157.882 21.8405L162.567 11.1332Z" fill="#C087A2"/>
<path d="M191.473 4.28292C191.473 6.64831 189.308 8.56583 186.638 8.56583C183.967 8.56583 181.802 6.64831 181.802 4.28292C181.802 1.91753 183.967 0 186.638 0C189.308 0 191.473 1.91753 191.473 4.28292Z" fill="#C087A2"/>
<path d="M183.011 24.2699H190.264V33.1926H183.011V24.2699Z" fill="#C087A2"/>
<path d="M182.311 11.1332C182.612 10.4462 183.358 9.99347 184.19 9.99347H189.439C190.295 9.99347 191.058 10.4727 191.341 11.1885L195.572 21.8958C196.03 23.0561 195.058 24.2699 193.67 24.2699H179.505C178.089 24.2699 177.115 23.01 177.627 21.8405L182.311 11.1332Z" fill="#C087A2"/>
<path d="M211.217 4.28292C211.217 6.64831 209.053 8.56583 206.382 8.56583C203.712 8.56583 201.547 6.64831 201.547 4.28292C201.547 1.91753 203.712 0 206.382 0C209.053 0 211.217 1.91753 211.217 4.28292Z" fill="#C087A2"/>
<path d="M202.756 24.2699H210.009V33.1926H202.756V24.2699Z" fill="#C087A2"/>
<path d="M202.055 11.1332C202.356 10.4462 203.102 9.99347 203.934 9.99347H209.184C210.04 9.99347 210.802 10.4727 211.085 11.1885L215.316 21.8958C215.775 23.0561 214.802 24.2699 213.415 24.2699H199.25C197.834 24.2699 196.86 23.01 197.371 21.8405L202.055 11.1332Z" fill="#C087A2"/>
<path d="M230.962 4.28292C230.962 6.64831 228.797 8.56583 226.127 8.56583C223.456 8.56583 221.291 6.64831 221.291 4.28292C221.291 1.91753 223.456 0 226.127 0C228.797 0 230.962 1.91753 230.962 4.28292Z" fill="#C087A2"/>
<path d="M222.5 24.2699H229.753V33.1926H222.5V24.2699Z" fill="#C087A2"/>
<path d="M221.8 11.1332C222.1 10.4462 222.847 9.99347 223.679 9.99347H228.928C229.784 9.99347 230.547 10.4727 230.83 11.1885L235.061 21.8958C235.519 23.0561 234.547 24.2699 233.159 24.2699H218.994C217.578 24.2699 216.604 23.01 217.116 21.8405L221.8 11.1332Z" fill="#C087A2"/>
<path d="M250.706 4.28292C250.706 6.64831 248.541 8.56583 245.871 8.56583C243.2 8.56583 241.036 6.64831 241.036 4.28292C241.036 1.91753 243.2 0 245.871 0C248.541 0 250.706 1.91753 250.706 4.28292Z" fill="#C087A2"/>
<path d="M242.244 24.2699H249.497V33.1926H242.244V24.2699Z" fill="#C087A2"/>
<path d="M241.544 11.1332C241.845 10.4462 242.591 9.99347 243.423 9.99347H248.672C249.529 9.99347 250.291 10.4727 250.574 11.1885L254.805 21.8958C255.263 23.0561 254.291 24.2699 252.903 24.2699H238.739C237.323 24.2699 236.348 23.01 236.86 21.8405L241.544 11.1332Z" fill="#C087A2"/>
<path d="M13.9843 113.283C13.9843 115.648 11.8194 117.566 9.1489 117.566C6.4784 117.566 4.31353 115.648 4.31353 113.283C4.31353 110.918 6.4784 109 9.1489 109C11.8194 109 13.9843 110.918 13.9843 113.283Z" fill="#C087A2"/>
<path d="M5.52237 133.27H12.7754V142.193H5.52237V133.27Z" fill="#C087A2"/>
<path d="M4.82228 120.133C5.12282 119.446 5.86911 118.993 6.7009 118.993H11.9504C12.8066 118.993 13.5692 119.473 13.852 120.188L18.083 130.896C18.5415 132.056 17.5692 133.27 16.1814 133.27H2.01664C0.600587 133.27 -0.373632 132.01 0.138018 130.841L4.82228 120.133Z" fill="#C087A2"/>
<path d="M33.7287 113.283C33.7287 115.648 31.5638 117.566 28.8933 117.566C26.2228 117.566 24.0579 115.648 24.0579 113.283C24.0579 110.918 26.2228 109 28.8933 109C31.5638 109 33.7287 110.918 33.7287 113.283Z" fill="#C087A2"/>
<path d="M25.2668 133.27H32.5198V142.193H25.2668V133.27Z" fill="#C087A2"/>
<path d="M24.5667 120.133C24.8672 119.446 25.6135 118.993 26.4453 118.993H31.6948C32.551 118.993 33.3136 119.473 33.5965 120.188L37.8274 130.896C38.2859 132.056 37.3136 133.27 35.9258 133.27H21.761C20.345 133.27 19.3708 132.01 19.8824 130.841L24.5667 120.133Z" fill="#C087A2"/>
<path d="M53.4731 113.283C53.4731 115.648 51.3082 117.566 48.6377 117.566C45.9672 117.566 43.8023 115.648 43.8023 113.283C43.8023 110.918 45.9672 109 48.6377 109C51.3082 109 53.4731 110.918 53.4731 113.283Z" fill="#C087A2"/>
<path d="M45.0112 133.27H52.2642V142.193H45.0112V133.27Z" fill="#C087A2"/>
<path d="M44.3111 120.133C44.6116 119.446 45.3579 118.993 46.1897 118.993H51.4392C52.2954 118.993 53.058 119.473 53.3409 120.188L57.5718 130.896C58.0303 132.056 57.058 133.27 55.6702 133.27H41.5054C40.0894 133.27 39.1152 132.01 39.6268 130.841L44.3111 120.133Z" fill="#C087A2"/>
<path d="M13.9843 77.2829C13.9843 79.6483 11.8194 81.5658 9.1489 81.5658C6.4784 81.5658 4.31353 79.6483 4.31353 77.2829C4.31353 74.9175 6.4784 73 9.1489 73C11.8194 73 13.9843 74.9175 13.9843 77.2829Z" fill="#C087A2"/>
<path d="M5.52237 97.2699H12.7754V106.193H5.52237V97.2699Z" fill="#C087A2"/>
<path d="M4.82228 84.1332C5.12282 83.4462 5.86911 82.9935 6.7009 82.9935H11.9504C12.8066 82.9935 13.5692 83.4727 13.852 84.1885L18.083 94.8958C18.5415 96.0561 17.5692 97.2699 16.1814 97.2699H2.01664C0.600587 97.2699 -0.373632 96.01 0.138018 94.8405L4.82228 84.1332Z" fill="#C087A2"/>
<path d="M33.7287 77.2829C33.7287 79.6483 31.5638 81.5658 28.8933 81.5658C26.2228 81.5658 24.0579 79.6483 24.0579 77.2829C24.0579 74.9175 26.2228 73 28.8933 73C31.5638 73 33.7287 74.9175 33.7287 77.2829Z" fill="#C087A2"/>
<path d="M25.2668 97.2699H32.5198V106.193H25.2668V97.2699Z" fill="#C087A2"/>
<path d="M24.5667 84.1332C24.8672 83.4462 25.6135 82.9935 26.4453 82.9935H31.6948C32.551 82.9935 33.3136 83.4727 33.5965 84.1885L37.8274 94.8958C38.2859 96.0561 37.3136 97.2699 35.9258 97.2699H21.761C20.345 97.2699 19.3708 96.01 19.8824 94.8405L24.5667 84.1332Z" fill="#C087A2"/>
<path d="M53.4731 77.2829C53.4731 79.6483 51.3082 81.5658 48.6377 81.5658C45.9672 81.5658 43.8023 79.6483 43.8023 77.2829C43.8023 74.9175 45.9672 73 48.6377 73C51.3082 73 53.4731 74.9175 53.4731 77.2829Z" fill="#C087A2"/>
<path d="M45.0112 97.2699H52.2642V106.193H45.0112V97.2699Z" fill="#C087A2"/>
<path d="M44.3111 84.1332C44.6116 83.4462 45.3579 82.9935 46.1897 82.9935H51.4392C52.2954 82.9935 53.058 83.4727 53.3409 84.1885L57.5718 94.8958C58.0303 96.0561 57.058 97.2699 55.6702 97.2699H41.5054C40.0894 97.2699 39.1152 96.01 39.6268 94.8405L44.3111 84.1332Z" fill="#C087A2"/>
<path d="M269.984 4.28292C269.984 6.64831 267.819 8.56583 265.149 8.56583C262.478 8.56583 260.314 6.64831 260.314 4.28292C260.314 1.91753 262.478 0 265.149 0C267.819 0 269.984 1.91753 269.984 4.28292Z" fill="#C087A2"/>
<path d="M261.522 24.2699H268.775V33.1926H261.522V24.2699Z" fill="#C087A2"/>
<path d="M260.822 11.1332C261.123 10.4462 261.869 9.99347 262.701 9.99347H267.95C268.807 9.99347 269.569 10.4727 269.852 11.1885L274.083 21.8958C274.541 23.0561 273.569 24.2699 272.181 24.2699H258.017C256.601 24.2699 255.626 23.01 256.138 21.8405L260.822 11.1332Z" fill="#C087A2"/>
<path d="M289.729 4.28292C289.729 6.64831 287.564 8.56583 284.893 8.56583C282.223 8.56583 280.058 6.64831 280.058 4.28292C280.058 1.91753 282.223 0 284.893 0C287.564 0 289.729 1.91753 289.729 4.28292Z" fill="#C087A2"/>
<path d="M281.267 24.2699H288.52V33.1926H281.267V24.2699Z" fill="#C087A2"/>
<path d="M280.567 11.1332C280.867 10.4462 281.614 9.99347 282.445 9.99347H287.695C288.551 9.99347 289.314 10.4727 289.596 11.1885L293.827 21.8958C294.286 23.0561 293.314 24.2699 291.926 24.2699H277.761C276.345 24.2699 275.371 23.01 275.882 21.8405L280.567 11.1332Z" fill="#C087A2"/>
<path d="M309.473 4.28292C309.473 6.64831 307.308 8.56583 304.638 8.56583C301.967 8.56583 299.802 6.64831 299.802 4.28292C299.802 1.91753 301.967 0 304.638 0C307.308 0 309.473 1.91753 309.473 4.28292Z" fill="#C087A2"/>
<path d="M301.011 24.2699H308.264V33.1926H301.011V24.2699Z" fill="#C087A2"/>
<path d="M300.311 11.1332C300.612 10.4462 301.358 9.99347 302.19 9.99347H307.439C308.295 9.99347 309.058 10.4727 309.341 11.1885L313.572 21.8958C314.03 23.0561 313.058 24.2699 311.67 24.2699H297.505C296.089 24.2699 295.115 23.01 295.627 21.8405L300.311 11.1332Z" fill="#C087A2"/>
<path d="M329.217 4.28292C329.217 6.64831 327.053 8.56583 324.382 8.56583C321.712 8.56583 319.547 6.64831 319.547 4.28292C319.547 1.91753 321.712 0 324.382 0C327.053 0 329.217 1.91753 329.217 4.28292Z" fill="#C087A2"/>
<path d="M320.756 24.2699H328.009V33.1926H320.756V24.2699Z" fill="#C087A2"/>
<path d="M320.055 11.1332C320.356 10.4462 321.102 9.99347 321.934 9.99347H327.184C328.04 9.99347 328.802 10.4727 329.085 11.1885L333.316 21.8958C333.775 23.0561 332.802 24.2699 331.415 24.2699H317.25C315.834 24.2699 314.86 23.01 315.371 21.8405L320.055 11.1332Z" fill="#C087A2"/>
<path d="M348.962 4.28292C348.962 6.64831 346.797 8.56583 344.127 8.56583C341.456 8.56583 339.291 6.64831 339.291 4.28292C339.291 1.91753 341.456 0 344.127 0C346.797 0 348.962 1.91753 348.962 4.28292Z" fill="#C087A2"/>
<path d="M340.5 24.2699H347.753V33.1926H340.5V24.2699Z" fill="#C087A2"/>
<path d="M339.8 11.1332C340.1 10.4462 340.847 9.99347 341.679 9.99347H346.928C347.784 9.99347 348.547 10.4727 348.83 11.1885L353.061 21.8958C353.519 23.0561 352.547 24.2699 351.159 24.2699H336.994C335.578 24.2699 334.604 23.01 335.116 21.8405L339.8 11.1332Z" fill="#C087A2"/>
<path d="M368.706 4.28292C368.706 6.64831 366.541 8.56583 363.871 8.56583C361.2 8.56583 359.036 6.64831 359.036 4.28292C359.036 1.91753 361.2 0 363.871 0C366.541 0 368.706 1.91753 368.706 4.28292Z" fill="#C087A2"/>
<path d="M360.244 24.2699H367.497V33.1926H360.244V24.2699Z" fill="#C087A2"/>
<path d="M359.544 11.1332C359.845 10.4462 360.591 9.99347 361.423 9.99347H366.672C367.529 9.99347 368.291 10.4727 368.574 11.1885L372.805 21.8958C373.263 23.0561 372.291 24.2699 370.903 24.2699H356.739C355.323 24.2699 354.348 23.01 354.86 21.8405L359.544 11.1332Z" fill="#C087A2"/>
<path d="M13.9843 40.2829C13.9843 42.6483 11.8194 44.5658 9.1489 44.5658C6.4784 44.5658 4.31353 42.6483 4.31353 40.2829C4.31353 37.9175 6.4784 36 9.1489 36C11.8194 36 13.9843 37.9175 13.9843 40.2829Z" fill="#C087A2"/>
<path d="M5.52237 60.2699H12.7754V69.1926H5.52237V60.2699Z" fill="#C087A2"/>
<path d="M4.82228 47.1332C5.12282 46.4462 5.86911 45.9935 6.7009 45.9935H11.9504C12.8066 45.9935 13.5692 46.4727 13.852 47.1885L18.083 57.8958C18.5415 59.0561 17.5692 60.2699 16.1814 60.2699H2.01664C0.600587 60.2699 -0.373632 59.01 0.138018 57.8405L4.82228 47.1332Z" fill="#C087A2"/>
<path d="M33.7287 40.2829C33.7287 42.6483 31.5638 44.5658 28.8933 44.5658C26.2228 44.5658 24.0579 42.6483 24.0579 40.2829C24.0579 37.9175 26.2228 36 28.8933 36C31.5638 36 33.7287 37.9175 33.7287 40.2829Z" fill="#C087A2"/>
<path d="M25.2668 60.2699H32.5198V69.1926H25.2668V60.2699Z" fill="#C087A2"/>
<path d="M24.5667 47.1332C24.8672 46.4462 25.6135 45.9935 26.4453 45.9935H31.6948C32.551 45.9935 33.3136 46.4727 33.5965 47.1885L37.8274 57.8958C38.2859 59.0561 37.3136 60.2699 35.9258 60.2699H21.761C20.345 60.2699 19.3708 59.01 19.8824 57.8405L24.5667 47.1332Z" fill="#C087A2"/>
<path d="M53.4731 40.2829C53.4731 42.6483 51.3082 44.5658 48.6377 44.5658C45.9672 44.5658 43.8023 42.6483 43.8023 40.2829C43.8023 37.9175 45.9672 36 48.6377 36C51.3082 36 53.4731 37.9175 53.4731 40.2829Z" fill="#C087A2"/>
<path d="M45.0112 60.2699H52.2642V69.1926H45.0112V60.2699Z" fill="#C087A2"/>
<path d="M44.3111 47.1332C44.6116 46.4462 45.3579 45.9935 46.1897 45.9935H51.4392C52.2954 45.9935 53.058 46.4727 53.3409 47.1885L57.5718 57.8958C58.0303 59.0561 57.058 60.2699 55.6702 60.2699H41.5054C40.0894 60.2699 39.1152 59.01 39.6268 57.8405L44.3111 47.1332Z" fill="#C087A2"/>
<path d="M71.9843 113.283C71.9843 115.648 69.8194 117.566 67.1489 117.566C64.4784 117.566 62.3135 115.648 62.3135 113.283C62.3135 110.918 64.4784 109 67.1489 109C69.8194 109 71.9843 110.918 71.9843 113.283Z" fill="#C087A2"/>
<path d="M63.5224 133.27H70.7754V142.193H63.5224V133.27Z" fill="#C087A2"/>
<path d="M62.8223 120.133C63.1228 119.446 63.8691 118.993 64.7009 118.993H69.9504C70.8066 118.993 71.5692 119.473 71.852 120.188L76.083 130.896C76.5415 132.056 75.5692 133.27 74.1814 133.27H60.0166C58.6006 133.27 57.6264 132.01 58.138 130.841L62.8223 120.133Z" fill="#C087A2"/>
<path d="M72.9843 77.2829C72.9843 79.6483 70.8194 81.5658 68.1489 81.5658C65.4784 81.5658 63.3135 79.6483 63.3135 77.2829C63.3135 74.9175 65.4784 73 68.1489 73C70.8194 73 72.9843 74.9175 72.9843 77.2829Z" fill="#C087A2"/>
<path d="M64.5224 97.2699H71.7754V106.193H64.5224V97.2699Z" fill="#C087A2"/>
<path d="M63.8223 84.1332C64.1228 83.4462 64.8691 82.9935 65.7009 82.9935H70.9504C71.8066 82.9935 72.5692 83.4727 72.852 84.1885L77.083 94.8958C77.5415 96.0561 76.5692 97.2699 75.1814 97.2699H61.0166C59.6006 97.2699 58.6264 96.01 59.138 94.8405L63.8223 84.1332Z" fill="#C087A2"/>
<path d="M72.9843 40.2829C72.9843 42.6483 70.8194 44.5658 68.1489 44.5658C65.4784 44.5658 63.3135 42.6483 63.3135 40.2829C63.3135 37.9175 65.4784 36 68.1489 36C70.8194 36 72.9843 37.9175 72.9843 40.2829Z" fill="#C087A2"/>
<path d="M64.5224 60.2699H71.7754V69.1926H64.5224V60.2699Z" fill="#C087A2"/>
<path d="M63.8223 47.1332C64.1228 46.4462 64.8691 45.9935 65.7009 45.9935H70.9504C71.8066 45.9935 72.5692 46.4727 72.852 47.1885L77.083 57.8958C77.5415 59.0561 76.5692 60.2699 75.1814 60.2699H61.0166C59.6006 60.2699 58.6264 59.01 59.138 57.8405L63.8223 47.1332Z" fill="#C087A2"/>
<path d="M52.9843 4.28292C52.9843 6.64831 50.8194 8.56583 48.1489 8.56583C45.4784 8.56583 43.3135 6.64831 43.3135 4.28292C43.3135 1.91753 45.4784 0 48.1489 0C50.8194 0 52.9843 1.91753 52.9843 4.28292Z" fill="#C087A2"/>
<path d="M44.5224 24.2699H51.7754V33.1926H44.5224V24.2699Z" fill="#C087A2"/>
<path d="M43.8223 11.1332C44.1228 10.4462 44.8691 9.99347 45.7009 9.99347H50.9504C51.8066 9.99347 52.5692 10.4727 52.852 11.1885L57.083 21.8958C57.5415 23.0561 56.5692 24.2699 55.1814 24.2699H41.0166C39.6006 24.2699 38.6264 23.01 39.138 21.8405L43.8223 11.1332Z" fill="#C087A2"/>
<path d="M92.9619 4.28292C92.9619 6.64831 90.797 8.56583 88.1265 8.56583C85.456 8.56583 83.2912 6.64831 83.2912 4.28292C83.2912 1.91753 85.456 0 88.1265 0C90.797 0 92.9619 1.91753 92.9619 4.28292Z" fill="#C087A2"/>
<path d="M84.5 24.2699H91.753V33.1926H84.5V24.2699Z" fill="#C087A2"/>
<path d="M83.7999 11.1332C84.1004 10.4462 84.8467 9.99347 85.6785 9.99347H90.928C91.7842 9.99347 92.5468 10.4727 92.8297 11.1885L97.0606 21.8958C97.5191 23.0561 96.5468 24.2699 95.159 24.2699H80.9943C79.5782 24.2699 78.604 23.01 79.1156 21.8405L83.7999 11.1332Z" fill="#C087A2"/>
<path d="M93.3648 77.4494C93.3648 79.8148 91.2 81.7323 88.5295 81.7323C85.859 81.7323 83.6941 79.8148 83.6941 77.4494C83.6941 75.084 85.859 73.1665 88.5295 73.1665C91.2 73.1665 93.3648 75.084 93.3648 77.4494Z" fill="#C087A2"/>
<path d="M84.9029 97.4363H92.156V106.359H84.9029V97.4363Z" fill="#C087A2"/>
<path d="M84.2029 84.2997C84.5034 83.6127 85.2497 83.16 86.0815 83.16H91.331C92.1871 83.16 92.9498 83.6392 93.2326 84.355L97.4636 95.0623C97.922 96.2225 96.9498 97.4363 95.5619 97.4363H81.3972C79.9812 97.4363 79.0069 96.1765 79.5186 95.007L84.2029 84.2997Z" fill="#C087A2"/>
<path d="M92.9619 40.3308C92.9619 42.6962 90.797 44.6137 88.1265 44.6137C85.456 44.6137 83.2912 42.6962 83.2912 40.3308C83.2912 37.9654 85.456 36.0479 88.1265 36.0479C90.797 36.0479 92.9619 37.9654 92.9619 40.3308Z" fill="#C087A2"/>
<path d="M84.5 60.3177H91.753V69.2405H84.5V60.3177Z" fill="#C087A2"/>
<path d="M83.7999 47.1811C84.1004 46.4941 84.8467 46.0414 85.6785 46.0414H90.928C91.7842 46.0414 92.5468 46.5206 92.8297 47.2364L97.0606 57.9437C97.5191 59.1039 96.5468 60.3177 95.159 60.3177H80.9943C79.5782 60.3177 78.604 59.0579 79.1156 57.8884L83.7999 47.1811Z" fill="#C087A2"/>
<path d="M93.3648 113.497C93.3648 115.863 91.2 117.78 88.5295 117.78C85.859 117.78 83.6941 115.863 83.6941 113.497C83.6941 111.132 85.859 109.214 88.5295 109.214C91.2 109.214 93.3648 111.132 93.3648 113.497Z" fill="#C087A2"/>
<path d="M84.9029 133.484H92.156V142.407H84.9029V133.484Z" fill="#C087A2"/>
<path d="M84.2029 120.348C84.5034 119.661 85.2497 119.208 86.0815 119.208H91.331C92.1871 119.208 92.9498 119.687 93.2326 120.403L97.4636 131.11C97.922 132.27 96.9498 133.484 95.5619 133.484H81.3972C79.9812 133.484 79.0069 132.224 79.5186 131.055L84.2029 120.348Z" fill="#C087A2"/>
<path d="M13.9843 4.28292C13.9843 6.64831 11.8194 8.56583 9.1489 8.56583C6.4784 8.56583 4.31353 6.64831 4.31353 4.28292C4.31353 1.91753 6.4784 0 9.1489 0C11.8194 0 13.9843 1.91753 13.9843 4.28292Z" fill="#C087A2"/>
<path d="M5.52237 24.2699H12.7754V33.1926H5.52237V24.2699Z" fill="#C087A2"/>
<path d="M4.82228 11.1332C5.12282 10.4462 5.86911 9.99347 6.7009 9.99347H11.9504C12.8066 9.99347 13.5692 10.4727 13.852 11.1885L18.083 21.8958C18.5415 23.0561 17.5692 24.2699 16.1814 24.2699H2.01664C0.600587 24.2699 -0.373632 23.01 0.138018 21.8405L4.82228 11.1332Z" fill="#C087A2"/>
<path d="M33.7287 4.28292C33.7287 6.64831 31.5638 8.56583 28.8933 8.56583C26.2228 8.56583 24.0579 6.64831 24.0579 4.28292C24.0579 1.91753 26.2228 0 28.8933 0C31.5638 0 33.7287 1.91753 33.7287 4.28292Z" fill="#C087A2"/>
<path d="M25.2668 24.2699H32.5198V33.1926H25.2668V24.2699Z" fill="#C087A2"/>
<path d="M24.5667 11.1332C24.8672 10.4462 25.6135 9.99347 26.4453 9.99347H31.6948C32.551 9.99347 33.3136 10.4727 33.5965 11.1885L37.8274 21.8958C38.2859 23.0561 37.3136 24.2699 35.9258 24.2699H21.761C20.345 24.2699 19.3708 23.01 19.8824 21.8405L24.5667 11.1332Z" fill="#C087A2"/>
<path d="M72.9843 4.28292C72.9843 6.64831 70.8194 8.56583 68.1489 8.56583C65.4784 8.56583 63.3135 6.64831 63.3135 4.28292C63.3135 1.91753 65.4784 0 68.1489 0C70.8194 0 72.9843 1.91753 72.9843 4.28292Z" fill="#C087A2"/>
<path d="M64.5224 24.2699H71.7754V33.1926H64.5224V24.2699Z" fill="#C087A2"/>
<path d="M63.8223 11.1332C64.1228 10.4462 64.8691 9.99347 65.7009 9.99347H70.9504C71.8066 9.99347 72.5692 10.4727 72.852 11.1885L77.083 21.8958C77.5415 23.0561 76.5692 24.2699 75.1814 24.2699H61.0166C59.6006 24.2699 58.6264 23.01 59.138 21.8405L63.8223 11.1332Z" fill="#C087A2"/>
</svg>
